<svg xmlns="http://www.w3.org/2000/svg" xmlns:xlink="http://www.w3.org/1999/xlink" width="500" zoomAndPan="magnify" viewBox="0 0 375 374.999991" height="500" preserveAspectRatio="xMidYMid meet" version="1.0"><defs><g/></defs><rect x="-37.5" width="450" fill="#ffffff" y="-37.499999" height="449.999989" fill-opacity="1"/><rect x="-37.5" width="450" fill="#f6475f" y="-37.499999" height="449.999989" fill-opacity="1"/><path stroke-linecap="butt" transform="matrix(1.028459, 0, 0, 1.028459, 0.263289, 164.429286)" fill="none" stroke-linejoin="miter" d="M 133.74301 29.626022 C 133.993688 29.804536 134.164605 30.062811 134.259559 30.408443 C 134.301339 30.742681 134.232972 31.038937 134.058257 31.297212 L 134.058257 31.422551 C 132.265526 34.236986 130.09298 36.371551 127.540618 37.830044 C 124.93888 39.277142 122.037087 39.998792 118.839038 39.998792 C 115.633393 39.998792 112.754389 39.277142 110.202027 37.830044 C 107.63827 36.371551 105.461926 34.236986 103.669195 31.422551 C 100.554706 26.35201 99.001259 19.929325 99.001259 12.162092 C 99.001259 4.265722 100.554706 -2.153165 103.669195 -7.102165 C 105.461926 -9.996361 107.63827 -12.168908 110.202027 -13.616006 C 112.754389 -15.074499 115.633393 -15.803745 118.839038 -15.803745 C 122.037087 -15.803745 124.93888 -15.074499 127.540618 -13.616006 C 130.09298 -12.168908 132.265526 -9.996361 134.058257 -7.102165 C 134.232972 -6.840092 134.301339 -6.540038 134.259559 -6.194405 C 134.164605 -5.863966 133.993688 -5.605691 133.74301 -5.430975 L 129.196615 -2.229128 C 128.645882 -2.02023 128.220488 -2.130376 127.916636 -2.55577 C 127.198784 -3.577474 126.431556 -4.451051 125.61875 -5.180297 C 124.767963 -5.898149 123.932368 -6.517249 123.119562 -7.041394 C 122.306756 -7.508568 121.543326 -7.869393 120.825475 -8.116273 C 120.054449 -8.336566 119.393569 -8.446713 118.839038 -8.446713 C 117.893297 -8.446713 116.715868 -8.192236 115.310549 -7.679485 C 113.863451 -7.159137 112.477123 -6.175414 111.155364 -4.728316 C 109.788028 -3.239438 108.637186 -1.150451 107.702839 1.538644 C 106.722914 4.265722 106.232952 7.805605 106.232952 12.162092 C 106.232952 16.514781 106.722914 20.035674 107.702839 22.720971 C 108.637186 25.410067 109.788028 27.476265 111.155364 28.923363 C 112.477123 30.423636 113.863451 31.430148 115.310549 31.939101 C 116.715868 32.448054 117.893297 32.70253 118.839038 32.70253 C 119.393569 32.70253 120.054449 32.573393 120.825475 32.315118 C 121.543326 32.10622 122.306756 31.745395 123.119562 31.236441 C 123.932368 30.76547 124.767963 30.14637 125.61875 29.375344 C 126.431556 28.646098 127.198784 27.772521 127.916636 26.750817 C 128.262268 26.283643 128.687662 26.200084 129.196615 26.503937 Z M 145.194456 31.171873 C 143.872697 28.737254 142.869983 25.91902 142.182517 22.720971 C 141.502647 19.522922 141.16461 16.00203 141.16461 12.162092 C 141.16461 8.329751 141.502647 4.786069 142.182517 1.538644 C 142.869983 -1.659405 143.872697 -4.47384 145.194456 -6.897064 C 148.434285 -12.837384 153.018661 -15.803745 158.943788 -15.803745 C 164.880309 -15.803745 169.468484 -12.837384 172.708312 -6.897064 C 174.030071 -4.47384 175.036583 -1.659405 175.72405 1.538644 C 176.400122 4.786069 176.738158 8.329751 176.738158 12.162092 C 176.738158 16.00203 176.400122 19.522922 175.72405 22.720971 C 175.036583 25.91902 174.030071 28.737254 172.708312 31.171873 C 171.082701 34.069867 169.119053 36.265203 166.817369 37.765475 C 164.515686 39.254353 161.891158 39.998792 158.943788 39.998792 C 156.007812 39.998792 153.387083 39.254353 151.085399 37.765475 C 148.772321 36.265203 146.808673 34.069867 145.194456 31.171873 Z M 148.400101 12.162092 C 148.400101 12.933118 148.441881 13.958621 148.525441 15.2386 C 148.563422 16.560359 148.715349 17.988466 148.977421 19.519124 C 149.18632 21.102956 149.524356 22.679192 149.99153 24.251629 C 150.462501 25.877241 151.100592 27.331935 151.913398 28.611914 C 152.684424 29.891894 153.641559 30.940185 154.788603 31.752991 C 155.943243 32.603778 157.329571 33.03297 158.943788 33.03297 C 160.5694 33.03297 161.959525 32.603778 163.114165 31.752991 C 164.261209 30.940185 165.241134 29.891894 166.05394 28.611914 C 166.821168 27.331935 167.444065 25.877241 167.911239 24.251629 C 168.378412 22.679192 168.743035 21.102956 169.005108 19.519124 C 169.214007 17.988466 169.358337 16.560359 169.441897 15.2386 C 169.483676 13.958621 169.506465 12.933118 169.506465 12.162092 C 169.506465 11.398662 169.483676 10.33138 169.441897 8.956447 C 169.358337 7.634688 169.214007 6.20658 169.005108 4.675923 C 168.743035 3.145265 168.378412 1.56903 167.911239 -0.056582 C 167.444065 -1.682194 166.821168 -3.13309 166.05394 -4.413069 C 165.241134 -5.685452 164.261209 -6.748936 163.114165 -7.603522 C 161.959525 -8.412529 160.5694 -8.818932 158.943788 -8.818932 C 157.329571 -8.818932 155.943243 -8.412529 154.788603 -7.603522 C 153.641559 -6.748936 152.684424 -5.685452 151.913398 -4.413069 C 151.100592 -3.13309 150.462501 -1.682194 149.99153 -0.056582 C 149.524356 1.56903 149.18632 3.145265 148.977421 4.675923 C 148.715349 6.20658 148.563422 7.634688 148.525441 8.956447 C 148.441881 10.33138 148.400101 11.398662 148.400101 12.162092 Z M 208.475566 -9.024033 C 208.475566 -8.72018 208.410997 -8.439117 208.289456 -8.180842 L 192.025744 31.999871 C 191.942184 32.12521 191.942184 32.299926 192.025744 32.516421 C 192.158679 32.68354 192.310606 32.767099 192.477725 32.767099 L 206.614469 32.767099 C 207.12722 32.767099 207.575402 32.938016 207.959016 33.283649 C 208.304649 33.667263 208.475566 34.134436 208.475566 34.688967 L 208.475566 38.141493 C 208.475566 38.650446 208.304649 39.079638 207.959016 39.421472 C 207.575402 39.808884 207.12722 39.998792 206.614469 39.998792 L 185.511903 39.998792 C 184.987757 39.998792 184.562363 39.808884 184.228125 39.421472 C 183.844512 39.079638 183.650805 38.650446 183.650805 38.141493 L 183.650805 33.21908 C 183.650805 32.919025 183.715374 32.64176 183.836915 32.391081 L 200.085435 -7.804824 C 200.222169 -7.930163 200.222169 -8.097282 200.085435 -8.306181 C 200.043655 -8.480896 199.899325 -8.572052 199.648647 -8.572052 L 185.511903 -8.572052 C 184.987757 -8.572052 184.562363 -8.76196 184.228125 -9.149372 C 183.844512 -9.48361 183.650805 -9.927995 183.650805 -10.49392 L 183.650805 -13.946446 C 183.650805 -14.455399 183.844512 -14.903581 184.228125 -15.287195 C 184.562363 -15.632828 184.987757 -15.803745 185.511903 -15.803745 L 206.614469 -15.803745 C 207.12722 -15.803745 207.575402 -15.632828 207.959016 -15.287195 C 208.304649 -14.903581 208.475566 -14.455399 208.475566 -13.946446 Z M 222.619906 38.141493 C 222.619906 38.650446 222.448989 39.079638 222.103357 39.421472 C 221.719743 39.808884 221.27156 39.998792 220.762607 39.998792 L 217.245513 39.998792 C 216.725165 39.998792 216.299771 39.808884 215.965533 39.421472 C 215.581919 39.079638 215.388213 38.650446 215.388213 38.141493 L 215.388213 -13.946446 C 215.388213 -14.455399 215.581919 -14.903581 215.965533 -15.287195 C 216.299771 -15.632828 216.725165 -15.803745 217.245513 -15.803745 L 220.762607 -15.803745 C 221.27156 -15.803745 221.719743 -15.632828 222.103357 -15.287195 C 222.448989 -14.903581 222.619906 -14.455399 222.619906 -13.946446 Z M 233.558601 31.171873 C 232.236842 28.737254 231.23033 25.91902 230.542864 22.720971 C 229.866792 19.522922 229.528755 16.00203 229.528755 12.162092 C 229.528755 8.329751 229.866792 4.786069 230.542864 1.538644 C 231.23033 -1.659405 232.236842 -4.47384 233.558601 -6.897064 C 236.79843 -12.837384 241.379008 -15.803745 247.307933 -15.803745 C 253.244454 -15.803745 257.832629 -12.837384 261.068659 -6.897064 C 262.394216 -4.47384 263.39693 -1.659405 264.084397 1.538644 C 264.760469 4.786069 265.102303 8.329751 265.102303 12.162092 C 265.102303 16.00203 264.760469 19.522922 264.084397 22.720971 C 263.39693 25.91902 262.394216 28.737254 261.068659 31.171873 C 259.446846 34.069867 257.483198 36.265203 255.181514 37.765475 C 252.879831 39.254353 250.255303 39.998792 247.307933 39.998792 C 244.368159 39.998792 241.751228 39.254353 239.449544 37.765475 C 237.136466 36.265203 235.172818 34.069867 233.558601 31.171873 Z M 236.760448 12.162092 C 236.760448 12.933118 236.802228 13.958621 236.885787 15.2386 C 236.927567 16.560359 237.079494 17.988466 237.337768 19.519124 C 237.546667 21.102956 237.884703 22.679192 238.355675 24.251629 C 238.822848 25.877241 239.464737 27.331935 240.277543 28.611914 C 241.048569 29.891894 242.005704 30.940185 243.152748 31.752991 C 244.307388 32.603778 245.693716 33.03297 247.307933 33.03297 C 248.929746 33.03297 250.32367 32.603778 251.47831 31.752991 C 252.625354 30.940185 253.601481 29.891894 254.414286 28.611914 C 255.185313 27.331935 255.804412 25.877241 256.275384 24.251629 C 256.742557 22.679192 257.10718 21.102956 257.369253 19.519124 C 257.574354 17.988466 257.722482 16.560359 257.806042 15.2386 C 257.847821 13.958621 257.866812 12.933118 257.866812 12.162092 C 257.866812 11.398662 257.847821 10.33138 257.806042 8.956447 C 257.722482 7.634688 257.574354 6.20658 257.369253 4.675923 C 257.10718 3.145265 256.742557 1.56903 256.275384 -0.056582 C 255.804412 -1.682194 255.185313 -3.13309 254.414286 -4.413069 C 253.601481 -5.685452 252.625354 -6.748936 251.47831 -7.603522 C 250.32367 -8.412529 248.929746 -8.818932 247.307933 -8.818932 C 245.693716 -8.818932 244.307388 -8.412529 243.152748 -7.603522 C 242.005704 -6.748936 241.048569 -5.685452 240.277543 -4.413069 C 239.464737 -3.13309 238.822848 -1.682194 238.355675 -0.056582 C 237.884703 1.56903 237.546667 3.145265 237.337768 4.675923 C 237.079494 6.20658 236.927567 7.634688 236.885787 8.956447 C 236.802228 10.33138 236.760448 11.398662 236.760448 12.162092 Z M 236.760448 12.162092 " stroke="#f8f5f3" stroke-width="1.999991" stroke-opacity="1" stroke-miterlimit="4"/><g fill="#f8f5f3" fill-opacity="1"><g transform="translate(98.786454, 205.567649)"><g><path d="M 39.03125 -10.65625 C 39.289062 -10.476562 39.460938 -10.21875 39.546875 -9.875 C 39.597656 -9.519531 39.535156 -9.210938 39.359375 -8.953125 L 39.359375 -8.8125 C 37.515625 -5.914062 35.273438 -3.722656 32.640625 -2.234375 C 29.960938 -0.742188 26.976562 0 23.6875 0 C 20.394531 0 17.4375 -0.742188 14.8125 -2.234375 C 12.175781 -3.722656 9.9375 -5.914062 8.09375 -8.8125 C 4.894531 -14.039062 3.296875 -20.644531 3.296875 -28.625 C 3.296875 -36.738281 4.894531 -43.34375 8.09375 -48.4375 C 9.9375 -51.414062 12.175781 -53.65625 14.8125 -55.15625 C 17.4375 -56.644531 20.394531 -57.390625 23.6875 -57.390625 C 26.976562 -57.390625 29.960938 -56.644531 32.640625 -55.15625 C 35.273438 -53.65625 37.515625 -51.414062 39.359375 -48.4375 C 39.535156 -48.175781 39.597656 -47.867188 39.546875 -47.515625 C 39.460938 -47.160156 39.289062 -46.898438 39.03125 -46.734375 L 34.359375 -43.4375 C 33.785156 -43.21875 33.34375 -43.328125 33.03125 -43.765625 C 32.289062 -44.816406 31.503906 -45.71875 30.671875 -46.46875 C 29.796875 -47.207031 28.941406 -47.84375 28.109375 -48.375 C 27.265625 -48.851562 26.472656 -49.222656 25.734375 -49.484375 C 24.941406 -49.703125 24.257812 -49.8125 23.6875 -49.8125 C 22.726562 -49.8125 21.523438 -49.550781 20.078125 -49.03125 C 18.578125 -48.5 17.148438 -47.488281 15.796875 -46 C 14.390625 -44.46875 13.203125 -42.316406 12.234375 -39.546875 C 11.234375 -36.742188 10.734375 -33.101562 10.734375 -28.625 C 10.734375 -24.15625 11.234375 -20.535156 12.234375 -17.765625 C 13.203125 -15.003906 14.390625 -12.878906 15.796875 -11.390625 C 17.148438 -9.847656 18.578125 -8.816406 20.078125 -8.296875 C 21.523438 -7.765625 22.726562 -7.5 23.6875 -7.5 C 24.257812 -7.5 24.941406 -7.628906 25.734375 -7.890625 C 26.472656 -8.117188 27.265625 -8.492188 28.109375 -9.015625 C 28.941406 -9.492188 29.796875 -10.128906 30.671875 -10.921875 C 31.503906 -11.671875 32.289062 -12.570312 33.03125 -13.625 C 33.382812 -14.101562 33.828125 -14.191406 34.359375 -13.890625 Z M 39.03125 -10.65625 "/></g></g></g><g fill="#f8f5f3" fill-opacity="1"><g transform="translate(142.15229, 205.567649)"><g><path d="M 7.4375 -9.078125 C 6.070312 -11.578125 5.039062 -14.472656 4.34375 -17.765625 C 3.644531 -21.054688 3.296875 -24.675781 3.296875 -28.625 C 3.296875 -32.570312 3.644531 -36.210938 4.34375 -39.546875 C 5.039062 -42.835938 6.070312 -45.734375 7.4375 -48.234375 C 10.769531 -54.335938 15.488281 -57.390625 21.59375 -57.390625 C 27.6875 -57.390625 32.398438 -54.335938 35.734375 -48.234375 C 37.097656 -45.734375 38.128906 -42.835938 38.828125 -39.546875 C 39.523438 -36.210938 39.875 -32.570312 39.875 -28.625 C 39.875 -24.675781 39.523438 -21.054688 38.828125 -17.765625 C 38.128906 -14.472656 37.097656 -11.578125 35.734375 -9.078125 C 34.066406 -6.097656 32.050781 -3.835938 29.6875 -2.296875 C 27.3125 -0.765625 24.613281 0 21.59375 0 C 18.5625 0 15.859375 -0.765625 13.484375 -2.296875 C 11.117188 -3.835938 9.101562 -6.097656 7.4375 -9.078125 Z M 10.734375 -28.625 C 10.734375 -27.832031 10.773438 -26.78125 10.859375 -25.46875 C 10.898438 -24.101562 11.050781 -22.632812 11.3125 -21.0625 C 11.539062 -19.4375 11.894531 -17.8125 12.375 -16.1875 C 12.851562 -14.519531 13.507812 -13.03125 14.34375 -11.71875 C 15.132812 -10.394531 16.125 -9.316406 17.3125 -8.484375 C 18.488281 -7.609375 19.914062 -7.171875 21.59375 -7.171875 C 23.257812 -7.171875 24.679688 -7.609375 25.859375 -8.484375 C 27.046875 -9.316406 28.054688 -10.394531 28.890625 -11.71875 C 29.679688 -13.03125 30.316406 -14.519531 30.796875 -16.1875 C 31.285156 -17.8125 31.660156 -19.4375 31.921875 -21.0625 C 32.140625 -22.632812 32.289062 -24.101562 32.375 -25.46875 C 32.425781 -26.78125 32.453125 -27.832031 32.453125 -28.625 C 32.453125 -29.414062 32.425781 -30.515625 32.375 -31.921875 C 32.289062 -33.273438 32.140625 -34.742188 31.921875 -36.328125 C 31.660156 -37.910156 31.285156 -39.535156 30.796875 -41.203125 C 30.316406 -42.867188 29.679688 -44.359375 28.890625 -45.671875 C 28.054688 -46.984375 27.046875 -48.082031 25.859375 -48.96875 C 24.679688 -49.800781 23.257812 -50.21875 21.59375 -50.21875 C 19.914062 -50.21875 18.488281 -49.800781 17.3125 -48.96875 C 16.125 -48.082031 15.132812 -46.984375 14.34375 -45.671875 C 13.507812 -44.359375 12.851562 -42.867188 12.375 -41.203125 C 11.894531 -39.535156 11.539062 -37.910156 11.3125 -36.328125 C 11.050781 -34.742188 10.898438 -33.273438 10.859375 -31.921875 C 10.773438 -30.515625 10.734375 -29.414062 10.734375 -28.625 Z M 10.734375 -28.625 "/></g></g></g><g fill="#f8f5f3" fill-opacity="1"><g transform="translate(185.847162, 205.567649)"><g><path d="M 28.828125 -50.40625 C 28.828125 -50.101562 28.757812 -49.820312 28.625 -49.5625 L 11.90625 -8.234375 C 11.820312 -8.097656 11.820312 -7.921875 11.90625 -7.703125 C 12.039062 -7.523438 12.195312 -7.4375 12.375 -7.4375 L 26.921875 -7.4375 C 27.441406 -7.4375 27.898438 -7.257812 28.296875 -6.90625 C 28.648438 -6.507812 28.828125 -6.03125 28.828125 -5.46875 L 28.828125 -1.90625 C 28.828125 -1.382812 28.648438 -0.945312 28.296875 -0.59375 C 27.898438 -0.195312 27.441406 0 26.921875 0 L 5.203125 0 C 4.671875 0 4.234375 -0.195312 3.890625 -0.59375 C 3.492188 -0.945312 3.296875 -1.382812 3.296875 -1.90625 L 3.296875 -6.96875 C 3.296875 -7.28125 3.359375 -7.566406 3.484375 -7.828125 L 20.203125 -49.15625 C 20.335938 -49.289062 20.335938 -49.46875 20.203125 -49.6875 C 20.160156 -49.863281 20.007812 -49.953125 19.75 -49.953125 L 5.203125 -49.953125 C 4.671875 -49.953125 4.234375 -50.148438 3.890625 -50.546875 C 3.492188 -50.898438 3.296875 -51.359375 3.296875 -51.921875 L 3.296875 -55.484375 C 3.296875 -56.003906 3.492188 -56.460938 3.890625 -56.859375 C 4.234375 -57.210938 4.671875 -57.390625 5.203125 -57.390625 L 26.921875 -57.390625 C 27.441406 -57.390625 27.898438 -57.210938 28.296875 -56.859375 C 28.648438 -56.460938 28.828125 -56.003906 28.828125 -55.484375 Z M 28.828125 -50.40625 "/></g></g></g><g fill="#f8f5f3" fill-opacity="1"><g transform="translate(218.486732, 205.567649)"><g><path d="M 10.734375 -1.90625 C 10.734375 -1.382812 10.554688 -0.945312 10.203125 -0.59375 C 9.804688 -0.195312 9.34375 0 8.8125 0 L 5.203125 0 C 4.671875 0 4.234375 -0.195312 3.890625 -0.59375 C 3.492188 -0.945312 3.296875 -1.382812 3.296875 -1.90625 L 3.296875 -55.484375 C 3.296875 -56.003906 3.492188 -56.460938 3.890625 -56.859375 C 4.234375 -57.210938 4.671875 -57.390625 5.203125 -57.390625 L 8.8125 -57.390625 C 9.34375 -57.390625 9.804688 -57.210938 10.203125 -56.859375 C 10.554688 -56.460938 10.734375 -56.003906 10.734375 -55.484375 Z M 10.734375 -1.90625 "/></g></g></g><g fill="#f8f5f3" fill-opacity="1"><g transform="translate(233.029833, 205.567649)"><g><path d="M 7.4375 -9.078125 C 6.070312 -11.578125 5.039062 -14.472656 4.34375 -17.765625 C 3.644531 -21.054688 3.296875 -24.675781 3.296875 -28.625 C 3.296875 -32.570312 3.644531 -36.210938 4.34375 -39.546875 C 5.039062 -42.835938 6.070312 -45.734375 7.4375 -48.234375 C 10.769531 -54.335938 15.488281 -57.390625 21.59375 -57.390625 C 27.6875 -57.390625 32.398438 -54.335938 35.734375 -48.234375 C 37.097656 -45.734375 38.128906 -42.835938 38.828125 -39.546875 C 39.523438 -36.210938 39.875 -32.570312 39.875 -28.625 C 39.875 -24.675781 39.523438 -21.054688 38.828125 -17.765625 C 38.128906 -14.472656 37.097656 -11.578125 35.734375 -9.078125 C 34.066406 -6.097656 32.050781 -3.835938 29.6875 -2.296875 C 27.3125 -0.765625 24.613281 0 21.59375 0 C 18.5625 0 15.859375 -0.765625 13.484375 -2.296875 C 11.117188 -3.835938 9.101562 -6.097656 7.4375 -9.078125 Z M 10.734375 -28.625 C 10.734375 -27.832031 10.773438 -26.78125 10.859375 -25.46875 C 10.898438 -24.101562 11.050781 -22.632812 11.3125 -21.0625 C 11.539062 -19.4375 11.894531 -17.8125 12.375 -16.1875 C 12.851562 -14.519531 13.507812 -13.03125 14.34375 -11.71875 C 15.132812 -10.394531 16.125 -9.316406 17.3125 -8.484375 C 18.488281 -7.609375 19.914062 -7.171875 21.59375 -7.171875 C 23.257812 -7.171875 24.679688 -7.609375 25.859375 -8.484375 C 27.046875 -9.316406 28.054688 -10.394531 28.890625 -11.71875 C 29.679688 -13.03125 30.316406 -14.519531 30.796875 -16.1875 C 31.285156 -17.8125 31.660156 -19.4375 31.921875 -21.0625 C 32.140625 -22.632812 32.289062 -24.101562 32.375 -25.46875 C 32.425781 -26.78125 32.453125 -27.832031 32.453125 -28.625 C 32.453125 -29.414062 32.425781 -30.515625 32.375 -31.921875 C 32.289062 -33.273438 32.140625 -34.742188 31.921875 -36.328125 C 31.660156 -37.910156 31.285156 -39.535156 30.796875 -41.203125 C 30.316406 -42.867188 29.679688 -44.359375 28.890625 -45.671875 C 28.054688 -46.984375 27.046875 -48.082031 25.859375 -48.96875 C 24.679688 -49.800781 23.257812 -50.21875 21.59375 -50.21875 C 19.914062 -50.21875 18.488281 -49.800781 17.3125 -48.96875 C 16.125 -48.082031 15.132812 -46.984375 14.34375 -45.671875 C 13.507812 -44.359375 12.851562 -42.867188 12.375 -41.203125 C 11.894531 -39.535156 11.539062 -37.910156 11.3125 -36.328125 C 11.050781 -34.742188 10.898438 -33.273438 10.859375 -31.921875 C 10.773438 -30.515625 10.734375 -29.414062 10.734375 -28.625 Z M 10.734375 -28.625 "/></g></g></g><g fill="#f8f5f3" fill-opacity="1"><g transform="translate(122.92142, 227.680585)"><g><path d="M 2.75 -12.9375 C 2.8125 -13.007812 2.925781 -13.050781 3.09375 -13.0625 C 3.257812 -13.082031 3.429688 -13.066406 3.609375 -13.015625 C 3.785156 -12.972656 3.929688 -12.910156 4.046875 -12.828125 C 4.171875 -12.742188 4.210938 -12.644531 4.171875 -12.53125 C 4.003906 -12.164062 3.828125 -11.710938 3.640625 -11.171875 C 3.453125 -10.628906 3.257812 -10.039062 3.0625 -9.40625 C 2.863281 -8.769531 2.671875 -8.132812 2.484375 -7.5 C 2.304688 -6.875 2.132812 -6.285156 1.96875 -5.734375 C 2.195312 -6.046875 2.476562 -6.378906 2.8125 -6.734375 C 3.144531 -7.097656 3.507812 -7.410156 3.90625 -7.671875 C 4.3125 -7.929688 4.722656 -8.0625 5.140625 -8.0625 C 5.867188 -8.070312 6.34375 -7.816406 6.5625 -7.296875 C 6.789062 -6.785156 6.796875 -6.132812 6.578125 -5.34375 C 6.285156 -4.257812 6.046875 -3.390625 5.859375 -2.734375 C 5.679688 -2.078125 5.585938 -1.601562 5.578125 -1.3125 C 5.578125 -1.03125 5.691406 -0.890625 5.921875 -0.890625 C 6.191406 -0.898438 6.5 -1.066406 6.84375 -1.390625 C 7.195312 -1.710938 7.535156 -2.140625 7.859375 -2.671875 C 8.191406 -3.203125 8.476562 -3.769531 8.71875 -4.375 C 8.75 -4.457031 8.816406 -4.484375 8.921875 -4.453125 C 9.035156 -4.421875 9.132812 -4.363281 9.21875 -4.28125 C 9.3125 -4.195312 9.335938 -4.109375 9.296875 -4.015625 C 9.109375 -3.566406 8.878906 -3.097656 8.609375 -2.609375 C 8.347656 -2.128906 8.054688 -1.675781 7.734375 -1.25 C 7.410156 -0.832031 7.0625 -0.488281 6.6875 -0.21875 C 6.3125 0.0390625 5.914062 0.175781 5.5 0.1875 C 4.800781 0.195312 4.363281 0.015625 4.1875 -0.359375 C 4.007812 -0.734375 3.96875 -1.222656 4.0625 -1.828125 C 4.09375 -2.066406 4.164062 -2.398438 4.28125 -2.828125 C 4.394531 -3.253906 4.519531 -3.703125 4.65625 -4.171875 C 4.789062 -4.648438 4.894531 -5.0625 4.96875 -5.40625 C 5.03125 -5.601562 5.070312 -5.8125 5.09375 -6.03125 C 5.113281 -6.257812 5.082031 -6.445312 5 -6.59375 C 4.925781 -6.75 4.757812 -6.820312 4.5 -6.8125 C 4.226562 -6.8125 3.921875 -6.6875 3.578125 -6.4375 C 3.242188 -6.1875 2.90625 -5.867188 2.5625 -5.484375 C 2.226562 -5.097656 1.929688 -4.691406 1.671875 -4.265625 C 1.515625 -3.703125 1.382812 -3.21875 1.28125 -2.8125 C 1.1875 -2.414062 1.09375 -2.023438 1 -1.640625 C 0.914062 -1.253906 0.816406 -0.789062 0.703125 -0.25 C 0.671875 -0.15625 0.566406 -0.078125 0.390625 -0.015625 C 0.210938 0.0351562 0.015625 0.0625 -0.203125 0.0625 C -0.421875 0.0703125 -0.601562 0.046875 -0.75 -0.015625 C -0.894531 -0.0859375 -0.945312 -0.207031 -0.90625 -0.375 C -0.664062 -1.488281 -0.394531 -2.632812 -0.09375 -3.8125 C 0.195312 -4.988281 0.503906 -6.140625 0.828125 -7.265625 C 1.160156 -8.390625 1.488281 -9.4375 1.8125 -10.40625 C 2.132812 -11.382812 2.445312 -12.226562 2.75 -12.9375 Z M 2.75 -12.9375 "/></g></g></g><g fill="#f8f5f3" fill-opacity="1"><g transform="translate(131.759971, 227.680585)"><g><path d="M 4.421875 -8.0625 C 5.078125 -8.082031 5.597656 -7.960938 5.984375 -7.703125 C 6.367188 -7.453125 6.644531 -7.101562 6.8125 -6.65625 C 6.988281 -6.21875 7.0625 -5.722656 7.03125 -5.171875 C 7.007812 -4.628906 6.90625 -4.070312 6.71875 -3.5 C 6.53125 -2.925781 6.28125 -2.382812 5.96875 -1.875 C 6.300781 -1.851562 6.640625 -1.894531 6.984375 -2 C 7.328125 -2.101562 7.664062 -2.335938 8 -2.703125 C 8.34375 -3.078125 8.660156 -3.632812 8.953125 -4.375 C 8.992188 -4.445312 9.066406 -4.460938 9.171875 -4.421875 C 9.273438 -4.390625 9.367188 -4.335938 9.453125 -4.265625 C 9.546875 -4.191406 9.578125 -4.109375 9.546875 -4.015625 C 9.148438 -3.097656 8.71875 -2.414062 8.25 -1.96875 C 7.78125 -1.53125 7.300781 -1.265625 6.8125 -1.171875 C 6.332031 -1.085938 5.859375 -1.101562 5.390625 -1.21875 C 4.992188 -0.78125 4.539062 -0.4375 4.03125 -0.1875 C 3.53125 0.0507812 2.972656 0.171875 2.359375 0.171875 C 1.828125 0.171875 1.335938 0.0546875 0.890625 -0.171875 C 0.453125 -0.410156 0.125 -0.796875 -0.09375 -1.328125 C -0.3125 -1.867188 -0.335938 -2.601562 -0.171875 -3.53125 C -0.015625 -4.375 0.28125 -5.132812 0.71875 -5.8125 C 1.164062 -6.488281 1.707031 -7.023438 2.34375 -7.421875 C 2.988281 -7.828125 3.679688 -8.039062 4.421875 -8.0625 Z M 4.265625 -6.9375 C 3.804688 -6.914062 3.378906 -6.71875 2.984375 -6.34375 C 2.585938 -5.976562 2.253906 -5.535156 1.984375 -5.015625 C 1.710938 -4.492188 1.53125 -3.976562 1.4375 -3.46875 C 1.375 -3.0625 1.351562 -2.660156 1.375 -2.265625 C 1.40625 -1.878906 1.515625 -1.554688 1.703125 -1.296875 C 1.890625 -1.046875 2.1875 -0.921875 2.59375 -0.921875 C 2.882812 -0.921875 3.171875 -1 3.453125 -1.15625 C 3.742188 -1.320312 4.003906 -1.53125 4.234375 -1.78125 C 4.109375 -1.96875 4.066406 -2.148438 4.109375 -2.328125 C 4.148438 -2.503906 4.238281 -2.640625 4.375 -2.734375 C 4.519531 -2.835938 4.664062 -2.851562 4.8125 -2.78125 C 5.03125 -3.25 5.203125 -3.726562 5.328125 -4.21875 C 5.453125 -4.71875 5.507812 -5.175781 5.5 -5.59375 C 5.488281 -6.007812 5.382812 -6.34375 5.1875 -6.59375 C 4.988281 -6.851562 4.679688 -6.96875 4.265625 -6.9375 Z M 4.265625 -6.9375 "/></g></g></g><g fill="#f8f5f3" fill-opacity="1"><g transform="translate(140.82613, 227.680585)"><g><path d="M 9.296875 0.1875 C 8.671875 0.195312 8.25 0.0234375 8.03125 -0.328125 C 7.8125 -0.679688 7.742188 -1.144531 7.828125 -1.71875 C 7.878906 -2.007812 7.957031 -2.367188 8.0625 -2.796875 C 8.175781 -3.234375 8.289062 -3.675781 8.40625 -4.125 C 8.53125 -4.582031 8.632812 -5.003906 8.71875 -5.390625 C 8.769531 -5.585938 8.816406 -5.796875 8.859375 -6.015625 C 8.898438 -6.242188 8.894531 -6.4375 8.84375 -6.59375 C 8.789062 -6.757812 8.648438 -6.84375 8.421875 -6.84375 C 8.222656 -6.84375 7.984375 -6.75 7.703125 -6.5625 C 7.429688 -6.382812 7.160156 -6.144531 6.890625 -5.84375 C 6.628906 -5.550781 6.390625 -5.226562 6.171875 -4.875 C 5.953125 -4.519531 5.785156 -4.164062 5.671875 -3.8125 C 5.566406 -3.414062 5.460938 -2.992188 5.359375 -2.546875 C 5.253906 -2.109375 5.15625 -1.6875 5.0625 -1.28125 C 4.976562 -0.882812 4.890625 -0.546875 4.796875 -0.265625 C 4.765625 -0.160156 4.664062 -0.0820312 4.5 -0.03125 C 4.332031 0.0078125 4.148438 0.03125 3.953125 0.03125 C 3.753906 0.03125 3.585938 0.00390625 3.453125 -0.046875 C 3.316406 -0.0976562 3.25 -0.179688 3.25 -0.296875 C 3.4375 -1.046875 3.628906 -1.820312 3.828125 -2.625 C 4.035156 -3.425781 4.269531 -4.363281 4.53125 -5.4375 C 4.582031 -5.632812 4.617188 -5.835938 4.640625 -6.046875 C 4.660156 -6.265625 4.640625 -6.445312 4.578125 -6.59375 C 4.515625 -6.738281 4.375 -6.8125 4.15625 -6.8125 C 3.914062 -6.820312 3.632812 -6.691406 3.3125 -6.421875 C 3 -6.148438 2.679688 -5.796875 2.359375 -5.359375 C 2.046875 -4.929688 1.765625 -4.46875 1.515625 -3.96875 C 1.335938 -3.332031 1.171875 -2.710938 1.015625 -2.109375 C 0.867188 -1.515625 0.71875 -0.878906 0.5625 -0.203125 C 0.539062 -0.117188 0.441406 -0.0507812 0.265625 0 C 0.0859375 0.0390625 -0.0976562 0.0507812 -0.296875 0.03125 C -0.503906 0.0195312 -0.679688 -0.0234375 -0.828125 -0.109375 C -0.972656 -0.191406 -1.03125 -0.304688 -1 -0.453125 C -0.757812 -1.296875 -0.539062 -2.082031 -0.34375 -2.8125 C -0.15625 -3.550781 0.0351562 -4.3125 0.234375 -5.09375 C 0.441406 -5.882812 0.664062 -6.765625 0.90625 -7.734375 C 0.957031 -7.835938 1.0625 -7.90625 1.21875 -7.9375 C 1.375 -7.976562 1.546875 -7.984375 1.734375 -7.953125 C 1.921875 -7.929688 2.078125 -7.878906 2.203125 -7.796875 C 2.335938 -7.722656 2.398438 -7.625 2.390625 -7.5 C 2.285156 -7.125 2.203125 -6.804688 2.140625 -6.546875 C 2.078125 -6.296875 1.992188 -6.007812 1.890625 -5.6875 C 2.109375 -6.070312 2.375 -6.445312 2.6875 -6.8125 C 3 -7.175781 3.335938 -7.476562 3.703125 -7.71875 C 4.078125 -7.957031 4.46875 -8.070312 4.875 -8.0625 C 5.394531 -8.050781 5.769531 -7.84375 6 -7.4375 C 6.238281 -7.03125 6.28125 -6.507812 6.125 -5.875 C 6.351562 -6.21875 6.613281 -6.554688 6.90625 -6.890625 C 7.207031 -7.222656 7.535156 -7.503906 7.890625 -7.734375 C 8.253906 -7.960938 8.644531 -8.070312 9.0625 -8.0625 C 9.738281 -8.050781 10.171875 -7.832031 10.359375 -7.40625 C 10.554688 -6.976562 10.566406 -6.367188 10.390625 -5.578125 C 10.335938 -5.304688 10.25 -4.972656 10.125 -4.578125 C 10 -4.179688 9.875 -3.765625 9.75 -3.328125 C 9.625 -2.898438 9.519531 -2.5 9.4375 -2.125 C 9.351562 -1.757812 9.328125 -1.460938 9.359375 -1.234375 C 9.390625 -1.003906 9.5 -0.890625 9.6875 -0.890625 C 9.976562 -0.898438 10.300781 -1.078125 10.65625 -1.421875 C 11.007812 -1.765625 11.347656 -2.203125 11.671875 -2.734375 C 12.003906 -3.265625 12.28125 -3.8125 12.5 -4.375 C 12.539062 -4.457031 12.613281 -4.484375 12.71875 -4.453125 C 12.820312 -4.421875 12.914062 -4.363281 13 -4.28125 C 13.09375 -4.195312 13.125 -4.109375 13.09375 -4.015625 C 12.894531 -3.585938 12.660156 -3.128906 12.390625 -2.640625 C 12.128906 -2.160156 11.832031 -1.707031 11.5 -1.28125 C 11.175781 -0.851562 10.828125 -0.503906 10.453125 -0.234375 C 10.085938 0.0351562 9.703125 0.175781 9.296875 0.1875 Z M 9.296875 0.1875 "/></g></g></g><g fill="#f8f5f3" fill-opacity="1"><g transform="translate(153.439063, 227.680585)"><g><path d="M 4.5 -8.03125 C 5.144531 -8 5.632812 -7.816406 5.96875 -7.484375 C 6.300781 -7.160156 6.488281 -6.765625 6.53125 -6.296875 C 6.570312 -5.835938 6.484375 -5.390625 6.265625 -4.953125 C 5.890625 -4.210938 5.273438 -3.691406 4.421875 -3.390625 C 3.578125 -3.097656 2.585938 -3.113281 1.453125 -3.4375 C 1.359375 -2.78125 1.460938 -2.222656 1.765625 -1.765625 C 2.066406 -1.304688 2.546875 -1.023438 3.203125 -0.921875 C 3.671875 -0.859375 4.203125 -0.921875 4.796875 -1.109375 C 5.390625 -1.296875 5.96875 -1.648438 6.53125 -2.171875 C 7.101562 -2.691406 7.585938 -3.425781 7.984375 -4.375 C 8.015625 -4.457031 8.082031 -4.484375 8.1875 -4.453125 C 8.289062 -4.421875 8.382812 -4.363281 8.46875 -4.28125 C 8.5625 -4.195312 8.59375 -4.109375 8.5625 -4.015625 C 8.164062 -3.054688 7.722656 -2.289062 7.234375 -1.71875 C 6.742188 -1.144531 6.242188 -0.71875 5.734375 -0.4375 C 5.222656 -0.15625 4.726562 0.0195312 4.25 0.09375 C 3.769531 0.164062 3.335938 0.195312 2.953125 0.1875 C 2.066406 0.132812 1.367188 -0.101562 0.859375 -0.53125 C 0.347656 -0.96875 0.03125 -1.519531 -0.09375 -2.1875 C -0.226562 -2.863281 -0.195312 -3.570312 0 -4.3125 C 0.226562 -5.101562 0.570312 -5.78125 1.03125 -6.34375 C 1.488281 -6.914062 2.019531 -7.347656 2.625 -7.640625 C 3.238281 -7.929688 3.863281 -8.0625 4.5 -8.03125 Z M 4.25 -6.9375 C 3.914062 -6.957031 3.566406 -6.84375 3.203125 -6.59375 C 2.847656 -6.34375 2.53125 -6.007812 2.25 -5.59375 C 1.96875 -5.1875 1.753906 -4.738281 1.609375 -4.25 C 2.390625 -4.09375 3.054688 -4.101562 3.609375 -4.28125 C 4.171875 -4.457031 4.570312 -4.78125 4.8125 -5.25 C 4.957031 -5.507812 5.039062 -5.765625 5.0625 -6.015625 C 5.09375 -6.273438 5.046875 -6.492188 4.921875 -6.671875 C 4.804688 -6.847656 4.582031 -6.9375 4.25 -6.9375 Z M 4.25 -6.9375 "/></g></g></g><g fill="#f8f5f3" fill-opacity="1"><g transform="translate(161.518951, 227.680585)"><g/></g></g><g fill="#f8f5f3" fill-opacity="1"><g transform="translate(166.184826, 227.680585)"><g><path d="M 4.5 -8.03125 C 5.144531 -8 5.632812 -7.816406 5.96875 -7.484375 C 6.300781 -7.160156 6.488281 -6.765625 6.53125 -6.296875 C 6.570312 -5.835938 6.484375 -5.390625 6.265625 -4.953125 C 5.890625 -4.210938 5.273438 -3.691406 4.421875 -3.390625 C 3.578125 -3.097656 2.585938 -3.113281 1.453125 -3.4375 C 1.359375 -2.78125 1.460938 -2.222656 1.765625 -1.765625 C 2.066406 -1.304688 2.546875 -1.023438 3.203125 -0.921875 C 3.671875 -0.859375 4.203125 -0.921875 4.796875 -1.109375 C 5.390625 -1.296875 5.96875 -1.648438 6.53125 -2.171875 C 7.101562 -2.691406 7.585938 -3.425781 7.984375 -4.375 C 8.015625 -4.457031 8.082031 -4.484375 8.1875 -4.453125 C 8.289062 -4.421875 8.382812 -4.363281 8.46875 -4.28125 C 8.5625 -4.195312 8.59375 -4.109375 8.5625 -4.015625 C 8.164062 -3.054688 7.722656 -2.289062 7.234375 -1.71875 C 6.742188 -1.144531 6.242188 -0.71875 5.734375 -0.4375 C 5.222656 -0.15625 4.726562 0.0195312 4.25 0.09375 C 3.769531 0.164062 3.335938 0.195312 2.953125 0.1875 C 2.066406 0.132812 1.367188 -0.101562 0.859375 -0.53125 C 0.347656 -0.96875 0.03125 -1.519531 -0.09375 -2.1875 C -0.226562 -2.863281 -0.195312 -3.570312 0 -4.3125 C 0.226562 -5.101562 0.570312 -5.78125 1.03125 -6.34375 C 1.488281 -6.914062 2.019531 -7.347656 2.625 -7.640625 C 3.238281 -7.929688 3.863281 -8.0625 4.5 -8.03125 Z M 4.25 -6.9375 C 3.914062 -6.957031 3.566406 -6.84375 3.203125 -6.59375 C 2.847656 -6.34375 2.53125 -6.007812 2.25 -5.59375 C 1.96875 -5.1875 1.753906 -4.738281 1.609375 -4.25 C 2.390625 -4.09375 3.054688 -4.101562 3.609375 -4.28125 C 4.171875 -4.457031 4.570312 -4.78125 4.8125 -5.25 C 4.957031 -5.507812 5.039062 -5.765625 5.0625 -6.015625 C 5.09375 -6.273438 5.046875 -6.492188 4.921875 -6.671875 C 4.804688 -6.847656 4.582031 -6.9375 4.25 -6.9375 Z M 4.25 -6.9375 "/></g></g></g><g fill="#f8f5f3" fill-opacity="1"><g transform="translate(174.264711, 227.680585)"><g><path d="M 1.09375 -7.640625 C 1.15625 -7.753906 1.265625 -7.832031 1.421875 -7.875 C 1.585938 -7.925781 1.757812 -7.941406 1.9375 -7.921875 C 2.113281 -7.898438 2.265625 -7.847656 2.390625 -7.765625 C 2.515625 -7.691406 2.570312 -7.601562 2.5625 -7.5 C 2.425781 -7.09375 2.265625 -6.613281 2.078125 -6.0625 C 1.890625 -5.507812 1.710938 -4.941406 1.546875 -4.359375 C 1.378906 -3.773438 1.253906 -3.226562 1.171875 -2.71875 C 1.085938 -2.21875 1.070312 -1.804688 1.125 -1.484375 C 1.1875 -1.160156 1.351562 -0.988281 1.625 -0.96875 C 2.132812 -0.925781 2.675781 -1.210938 3.25 -1.828125 C 3.050781 -2.035156 2.984375 -2.238281 3.046875 -2.4375 C 3.117188 -2.632812 3.242188 -2.773438 3.421875 -2.859375 C 3.609375 -2.941406 3.773438 -2.910156 3.921875 -2.765625 C 4.328125 -3.390625 4.671875 -4.128906 4.953125 -4.984375 C 5.242188 -5.847656 5.421875 -6.734375 5.484375 -7.640625 C 5.503906 -7.753906 5.59375 -7.835938 5.75 -7.890625 C 5.914062 -7.941406 6.09375 -7.957031 6.28125 -7.9375 C 6.46875 -7.925781 6.632812 -7.878906 6.78125 -7.796875 C 6.925781 -7.722656 7 -7.601562 7 -7.4375 C 6.875 -6.332031 6.640625 -5.304688 6.296875 -4.359375 C 5.960938 -3.421875 5.519531 -2.597656 4.96875 -1.890625 C 5.382812 -1.804688 5.804688 -1.820312 6.234375 -1.9375 C 6.671875 -2.050781 7.085938 -2.300781 7.484375 -2.6875 C 7.890625 -3.082031 8.238281 -3.644531 8.53125 -4.375 C 8.5625 -4.457031 8.628906 -4.484375 8.734375 -4.453125 C 8.835938 -4.421875 8.929688 -4.363281 9.015625 -4.28125 C 9.097656 -4.207031 9.125 -4.128906 9.09375 -4.046875 C 8.664062 -3.054688 8.179688 -2.335938 7.640625 -1.890625 C 7.097656 -1.453125 6.539062 -1.203125 5.96875 -1.140625 C 5.40625 -1.078125 4.867188 -1.113281 4.359375 -1.25 C 3.929688 -0.820312 3.457031 -0.46875 2.9375 -0.1875 C 2.414062 0.09375 1.8125 0.207031 1.125 0.15625 C 0.570312 0.125 0.15625 -0.0703125 -0.125 -0.4375 C -0.414062 -0.800781 -0.519531 -1.359375 -0.4375 -2.109375 C -0.300781 -3.117188 -0.078125 -4.082031 0.234375 -5 C 0.546875 -5.914062 0.832031 -6.796875 1.09375 -7.640625 Z M 1.09375 -7.640625 "/></g></g></g><g fill="#f8f5f3" fill-opacity="1"><g transform="translate(182.894629, 227.680585)"><g><path d="M 4.5 -8.03125 C 5.144531 -8 5.632812 -7.816406 5.96875 -7.484375 C 6.300781 -7.160156 6.488281 -6.765625 6.53125 -6.296875 C 6.570312 -5.835938 6.484375 -5.390625 6.265625 -4.953125 C 5.890625 -4.210938 5.273438 -3.691406 4.421875 -3.390625 C 3.578125 -3.097656 2.585938 -3.113281 1.453125 -3.4375 C 1.359375 -2.78125 1.460938 -2.222656 1.765625 -1.765625 C 2.066406 -1.304688 2.546875 -1.023438 3.203125 -0.921875 C 3.671875 -0.859375 4.203125 -0.921875 4.796875 -1.109375 C 5.390625 -1.296875 5.96875 -1.648438 6.53125 -2.171875 C 7.101562 -2.691406 7.585938 -3.425781 7.984375 -4.375 C 8.015625 -4.457031 8.082031 -4.484375 8.1875 -4.453125 C 8.289062 -4.421875 8.382812 -4.363281 8.46875 -4.28125 C 8.5625 -4.195312 8.59375 -4.109375 8.5625 -4.015625 C 8.164062 -3.054688 7.722656 -2.289062 7.234375 -1.71875 C 6.742188 -1.144531 6.242188 -0.71875 5.734375 -0.4375 C 5.222656 -0.15625 4.726562 0.0195312 4.25 0.09375 C 3.769531 0.164062 3.335938 0.195312 2.953125 0.1875 C 2.066406 0.132812 1.367188 -0.101562 0.859375 -0.53125 C 0.347656 -0.96875 0.03125 -1.519531 -0.09375 -2.1875 C -0.226562 -2.863281 -0.195312 -3.570312 0 -4.3125 C 0.226562 -5.101562 0.570312 -5.78125 1.03125 -6.34375 C 1.488281 -6.914062 2.019531 -7.347656 2.625 -7.640625 C 3.238281 -7.929688 3.863281 -8.0625 4.5 -8.03125 Z M 4.25 -6.9375 C 3.914062 -6.957031 3.566406 -6.84375 3.203125 -6.59375 C 2.847656 -6.34375 2.53125 -6.007812 2.25 -5.59375 C 1.96875 -5.1875 1.753906 -4.738281 1.609375 -4.25 C 2.390625 -4.09375 3.054688 -4.101562 3.609375 -4.28125 C 4.171875 -4.457031 4.570312 -4.78125 4.8125 -5.25 C 4.957031 -5.507812 5.039062 -5.765625 5.0625 -6.015625 C 5.09375 -6.273438 5.046875 -6.492188 4.921875 -6.671875 C 4.804688 -6.847656 4.582031 -6.9375 4.25 -6.9375 Z M 4.25 -6.9375 "/></g></g></g><g fill="#f8f5f3" fill-opacity="1"><g transform="translate(190.974514, 227.680585)"><g><path d="M 0.296875 -3.3125 C 0.273438 -3.25 0.207031 -3.234375 0.09375 -3.265625 C -0.0195312 -3.296875 -0.117188 -3.347656 -0.203125 -3.421875 C -0.296875 -3.492188 -0.320312 -3.5625 -0.28125 -3.625 C -0.0195312 -4.195312 0.191406 -4.707031 0.359375 -5.15625 C 0.535156 -5.601562 0.691406 -6.046875 0.828125 -6.484375 C 0.972656 -6.929688 1.113281 -7.425781 1.25 -7.96875 C 0.9375 -8.394531 0.785156 -8.769531 0.796875 -9.09375 C 0.816406 -9.414062 0.925781 -9.660156 1.125 -9.828125 C 1.320312 -9.992188 1.535156 -10.0625 1.765625 -10.03125 C 1.992188 -10.007812 2.171875 -9.875 2.296875 -9.625 C 2.429688 -9.375 2.4375 -9 2.3125 -8.5 C 2.550781 -8.226562 2.816406 -7.945312 3.109375 -7.65625 C 3.410156 -7.375 3.679688 -7.085938 3.921875 -6.796875 C 4.160156 -6.503906 4.320312 -6.21875 4.40625 -5.9375 C 4.488281 -5.65625 4.429688 -5.390625 4.234375 -5.140625 C 3.835938 -4.648438 3.476562 -4.128906 3.15625 -3.578125 C 2.84375 -3.035156 2.6875 -2.503906 2.6875 -1.984375 C 2.6875 -1.679688 2.753906 -1.429688 2.890625 -1.234375 C 3.035156 -1.046875 3.257812 -0.953125 3.5625 -0.953125 C 4.0625 -0.929688 4.632812 -1.191406 5.28125 -1.734375 C 5.9375 -2.273438 6.515625 -3.15625 7.015625 -4.375 C 7.054688 -4.445312 7.128906 -4.460938 7.234375 -4.421875 C 7.335938 -4.390625 7.429688 -4.332031 7.515625 -4.25 C 7.609375 -4.175781 7.640625 -4.097656 7.609375 -4.015625 C 7.066406 -2.753906 6.421875 -1.734375 5.671875 -0.953125 C 4.921875 -0.179688 4.054688 0.191406 3.078125 0.171875 C 2.398438 0.140625 1.894531 -0.0664062 1.5625 -0.453125 C 1.238281 -0.847656 1.078125 -1.328125 1.078125 -1.890625 C 1.066406 -2.503906 1.226562 -3.113281 1.5625 -3.71875 C 1.894531 -4.332031 2.257812 -4.925781 2.65625 -5.5 C 2.820312 -5.726562 2.859375 -5.957031 2.765625 -6.1875 C 2.671875 -6.425781 2.523438 -6.648438 2.328125 -6.859375 C 2.128906 -7.078125 1.953125 -7.273438 1.796875 -7.453125 C 1.640625 -6.835938 1.445312 -6.195312 1.21875 -5.53125 C 1 -4.875 0.691406 -4.132812 0.296875 -3.3125 Z M 0.296875 -3.3125 "/></g></g></g><g fill="#f8f5f3" fill-opacity="1"><g transform="translate(198.106062, 227.680585)"><g><path d="M 1.234375 5.59375 C 0.691406 5.625 0.257812 5.488281 -0.0625 5.1875 C -0.394531 4.894531 -0.539062 4.457031 -0.5 3.875 C -0.425781 3.3125 -0.191406 2.828125 0.203125 2.421875 C 0.609375 2.023438 1.101562 1.671875 1.6875 1.359375 C 2.269531 1.054688 2.851562 0.78125 3.4375 0.53125 C 3.53125 0.28125 3.644531 -0.078125 3.78125 -0.546875 C 3.925781 -1.023438 4.082031 -1.578125 4.25 -2.203125 C 3.695312 -1.273438 3.09375 -0.628906 2.4375 -0.265625 C 1.78125 0.0859375 1.195312 0.21875 0.6875 0.125 C 0.144531 0.0625 -0.234375 -0.164062 -0.453125 -0.5625 C -0.671875 -0.96875 -0.703125 -1.507812 -0.546875 -2.1875 C -0.335938 -3.1875 -0.0820312 -4.140625 0.21875 -5.046875 C 0.53125 -5.953125 0.742188 -6.816406 0.859375 -7.640625 C 0.890625 -7.742188 0.976562 -7.820312 1.125 -7.875 C 1.28125 -7.925781 1.453125 -7.941406 1.640625 -7.921875 C 1.828125 -7.910156 1.984375 -7.867188 2.109375 -7.796875 C 2.242188 -7.734375 2.3125 -7.640625 2.3125 -7.515625 C 2.238281 -7.097656 2.128906 -6.609375 1.984375 -6.046875 C 1.835938 -5.492188 1.6875 -4.910156 1.53125 -4.296875 C 1.375 -3.691406 1.222656 -3.097656 1.078125 -2.515625 C 0.972656 -2.078125 0.929688 -1.710938 0.953125 -1.421875 C 0.984375 -1.140625 1.144531 -0.984375 1.4375 -0.953125 C 1.71875 -0.921875 2.03125 -1.019531 2.375 -1.25 C 2.71875 -1.488281 3.054688 -1.832031 3.390625 -2.28125 C 3.722656 -2.726562 4.019531 -3.242188 4.28125 -3.828125 C 4.550781 -4.421875 4.789062 -5.066406 5 -5.765625 C 5.207031 -6.472656 5.378906 -7.117188 5.515625 -7.703125 C 5.566406 -7.816406 5.671875 -7.890625 5.828125 -7.921875 C 5.984375 -7.953125 6.15625 -7.953125 6.34375 -7.921875 C 6.53125 -7.890625 6.6875 -7.832031 6.8125 -7.75 C 6.9375 -7.664062 6.992188 -7.570312 6.984375 -7.46875 C 6.578125 -5.9375 6.203125 -4.523438 5.859375 -3.234375 C 5.515625 -1.953125 5.222656 -0.882812 4.984375 -0.03125 C 5.671875 -0.34375 6.351562 -0.847656 7.03125 -1.546875 C 7.71875 -2.242188 8.289062 -3.1875 8.75 -4.375 C 8.769531 -4.445312 8.832031 -4.46875 8.9375 -4.4375 C 9.050781 -4.414062 9.15625 -4.363281 9.25 -4.28125 C 9.34375 -4.207031 9.367188 -4.128906 9.328125 -4.046875 C 8.941406 -3.097656 8.515625 -2.300781 8.046875 -1.65625 C 7.585938 -1.019531 7.082031 -0.484375 6.53125 -0.046875 C 5.976562 0.378906 5.363281 0.753906 4.6875 1.078125 C 4.445312 2.023438 4.195312 2.789062 3.9375 3.375 C 3.6875 3.96875 3.421875 4.421875 3.140625 4.734375 C 2.867188 5.054688 2.570312 5.273438 2.25 5.390625 C 1.9375 5.515625 1.597656 5.582031 1.234375 5.59375 Z M 1.5625 4.4375 C 1.769531 4.375 1.988281 4.210938 2.21875 3.953125 C 2.445312 3.703125 2.65625 3.328125 2.84375 2.828125 C 2.914062 2.640625 2.976562 2.445312 3.03125 2.25 C 3.082031 2.050781 3.132812 1.851562 3.1875 1.65625 C 2.78125 1.863281 2.378906 2.113281 1.984375 2.40625 C 1.585938 2.707031 1.300781 3.003906 1.125 3.296875 C 0.894531 3.648438 0.832031 3.941406 0.9375 4.171875 C 1.039062 4.410156 1.25 4.5 1.5625 4.4375 Z M 1.5625 4.4375 "/></g></g></g><g fill="#f8f5f3" fill-opacity="1"><g transform="translate(206.963578, 227.680585)"><g><path d="M 5.828125 0.171875 C 5.265625 0.160156 4.859375 -0.03125 4.609375 -0.40625 C 4.367188 -0.789062 4.273438 -1.28125 4.328125 -1.875 C 3.785156 -1.0625 3.210938 -0.515625 2.609375 -0.234375 C 2.003906 0.0351562 1.460938 0.164062 0.984375 0.15625 C 0.429688 0.125 0.0234375 -0.0859375 -0.234375 -0.484375 C -0.492188 -0.878906 -0.570312 -1.429688 -0.46875 -2.140625 C -0.332031 -3.140625 -0.113281 -4.097656 0.1875 -5.015625 C 0.5 -5.929688 0.789062 -6.800781 1.0625 -7.625 C 1.125 -7.75 1.238281 -7.832031 1.40625 -7.875 C 1.582031 -7.925781 1.757812 -7.9375 1.9375 -7.90625 C 2.125 -7.882812 2.273438 -7.832031 2.390625 -7.75 C 2.515625 -7.675781 2.566406 -7.582031 2.546875 -7.46875 C 2.335938 -6.863281 2.097656 -6.128906 1.828125 -5.265625 C 1.554688 -4.398438 1.332031 -3.535156 1.15625 -2.671875 C 1.070312 -2.242188 1.039062 -1.859375 1.0625 -1.515625 C 1.082031 -1.171875 1.285156 -0.984375 1.671875 -0.953125 C 1.921875 -0.929688 2.21875 -1.023438 2.5625 -1.234375 C 2.914062 -1.453125 3.265625 -1.785156 3.609375 -2.234375 C 3.960938 -2.679688 4.257812 -3.238281 4.5 -3.90625 C 4.6875 -4.550781 4.894531 -5.195312 5.125 -5.84375 C 5.351562 -6.5 5.539062 -7.085938 5.6875 -7.609375 C 5.738281 -7.722656 5.84375 -7.800781 6 -7.84375 C 6.15625 -7.894531 6.328125 -7.914062 6.515625 -7.90625 C 6.703125 -7.894531 6.859375 -7.851562 6.984375 -7.78125 C 7.117188 -7.71875 7.179688 -7.625 7.171875 -7.5 C 7.015625 -7.03125 6.859375 -6.578125 6.703125 -6.140625 C 6.546875 -5.703125 6.390625 -5.222656 6.234375 -4.703125 C 6.078125 -4.179688 5.925781 -3.578125 5.78125 -2.890625 C 5.644531 -2.210938 5.609375 -1.722656 5.671875 -1.421875 C 5.734375 -1.117188 5.90625 -0.96875 6.1875 -0.96875 C 6.457031 -0.96875 6.734375 -1.046875 7.015625 -1.203125 C 7.296875 -1.367188 7.535156 -1.582031 7.734375 -1.84375 C 7.554688 -2.050781 7.492188 -2.25 7.546875 -2.4375 C 7.609375 -2.632812 7.726562 -2.769531 7.90625 -2.84375 C 8.082031 -2.914062 8.25 -2.882812 8.40625 -2.75 C 8.550781 -2.9375 8.71875 -3.21875 8.90625 -3.59375 C 9.09375 -3.96875 9.265625 -4.390625 9.421875 -4.859375 C 9.578125 -5.335938 9.707031 -5.820312 9.8125 -6.3125 C 9.925781 -6.8125 9.984375 -7.257812 9.984375 -7.65625 C 9.992188 -7.757812 10.070312 -7.832031 10.21875 -7.875 C 10.375 -7.925781 10.550781 -7.945312 10.75 -7.9375 C 10.945312 -7.925781 11.117188 -7.882812 11.265625 -7.8125 C 11.421875 -7.738281 11.5 -7.625 11.5 -7.46875 C 11.476562 -7 11.398438 -6.488281 11.265625 -5.9375 C 11.140625 -5.394531 10.972656 -4.859375 10.765625 -4.328125 C 10.566406 -3.804688 10.351562 -3.328125 10.125 -2.890625 C 9.894531 -2.460938 9.671875 -2.128906 9.453125 -1.890625 C 9.835938 -1.804688 10.242188 -1.8125 10.671875 -1.90625 C 11.109375 -2.007812 11.535156 -2.253906 11.953125 -2.640625 C 12.367188 -3.023438 12.734375 -3.601562 13.046875 -4.375 C 13.078125 -4.445312 13.144531 -4.460938 13.25 -4.421875 C 13.351562 -4.390625 13.445312 -4.335938 13.53125 -4.265625 C 13.625 -4.191406 13.644531 -4.101562 13.59375 -4 C 13.175781 -3.03125 12.691406 -2.320312 12.140625 -1.875 C 11.597656 -1.4375 11.039062 -1.1875 10.46875 -1.125 C 9.90625 -1.0625 9.367188 -1.101562 8.859375 -1.25 C 8.460938 -0.820312 8.015625 -0.472656 7.515625 -0.203125 C 7.015625 0.0546875 6.453125 0.179688 5.828125 0.171875 Z M 5.828125 0.171875 "/></g></g></g><g fill="#f8f5f3" fill-opacity="1"><g transform="translate(220.088607, 227.680585)"><g><path d="M 2.75 -12.9375 C 2.8125 -13.007812 2.925781 -13.050781 3.09375 -13.0625 C 3.257812 -13.082031 3.429688 -13.066406 3.609375 -13.015625 C 3.785156 -12.972656 3.929688 -12.910156 4.046875 -12.828125 C 4.171875 -12.742188 4.210938 -12.644531 4.171875 -12.53125 C 4.003906 -12.164062 3.828125 -11.710938 3.640625 -11.171875 C 3.453125 -10.628906 3.257812 -10.039062 3.0625 -9.40625 C 2.863281 -8.769531 2.671875 -8.132812 2.484375 -7.5 C 2.304688 -6.875 2.132812 -6.285156 1.96875 -5.734375 C 2.195312 -6.046875 2.476562 -6.378906 2.8125 -6.734375 C 3.144531 -7.097656 3.507812 -7.410156 3.90625 -7.671875 C 4.3125 -7.929688 4.722656 -8.0625 5.140625 -8.0625 C 5.867188 -8.070312 6.34375 -7.816406 6.5625 -7.296875 C 6.789062 -6.785156 6.796875 -6.132812 6.578125 -5.34375 C 6.285156 -4.257812 6.046875 -3.390625 5.859375 -2.734375 C 5.679688 -2.078125 5.585938 -1.601562 5.578125 -1.3125 C 5.578125 -1.03125 5.691406 -0.890625 5.921875 -0.890625 C 6.191406 -0.898438 6.5 -1.066406 6.84375 -1.390625 C 7.195312 -1.710938 7.535156 -2.140625 7.859375 -2.671875 C 8.191406 -3.203125 8.476562 -3.769531 8.71875 -4.375 C 8.75 -4.457031 8.816406 -4.484375 8.921875 -4.453125 C 9.035156 -4.421875 9.132812 -4.363281 9.21875 -4.28125 C 9.3125 -4.195312 9.335938 -4.109375 9.296875 -4.015625 C 9.109375 -3.566406 8.878906 -3.097656 8.609375 -2.609375 C 8.347656 -2.128906 8.054688 -1.675781 7.734375 -1.25 C 7.410156 -0.832031 7.0625 -0.488281 6.6875 -0.21875 C 6.3125 0.0390625 5.914062 0.175781 5.5 0.1875 C 4.800781 0.195312 4.363281 0.015625 4.1875 -0.359375 C 4.007812 -0.734375 3.96875 -1.222656 4.0625 -1.828125 C 4.09375 -2.066406 4.164062 -2.398438 4.28125 -2.828125 C 4.394531 -3.253906 4.519531 -3.703125 4.65625 -4.171875 C 4.789062 -4.648438 4.894531 -5.0625 4.96875 -5.40625 C 5.03125 -5.601562 5.070312 -5.8125 5.09375 -6.03125 C 5.113281 -6.257812 5.082031 -6.445312 5 -6.59375 C 4.925781 -6.75 4.757812 -6.820312 4.5 -6.8125 C 4.226562 -6.8125 3.921875 -6.6875 3.578125 -6.4375 C 3.242188 -6.1875 2.90625 -5.867188 2.5625 -5.484375 C 2.226562 -5.097656 1.929688 -4.691406 1.671875 -4.265625 C 1.515625 -3.703125 1.382812 -3.21875 1.28125 -2.8125 C 1.1875 -2.414062 1.09375 -2.023438 1 -1.640625 C 0.914062 -1.253906 0.816406 -0.789062 0.703125 -0.25 C 0.671875 -0.15625 0.566406 -0.078125 0.390625 -0.015625 C 0.210938 0.0351562 0.015625 0.0625 -0.203125 0.0625 C -0.421875 0.0703125 -0.601562 0.046875 -0.75 -0.015625 C -0.894531 -0.0859375 -0.945312 -0.207031 -0.90625 -0.375 C -0.664062 -1.488281 -0.394531 -2.632812 -0.09375 -3.8125 C 0.195312 -4.988281 0.503906 -6.140625 0.828125 -7.265625 C 1.160156 -8.390625 1.488281 -9.4375 1.8125 -10.40625 C 2.132812 -11.382812 2.445312 -12.226562 2.75 -12.9375 Z M 2.75 -12.9375 "/></g></g></g><g fill="#f8f5f3" fill-opacity="1"><g transform="translate(228.927155, 227.680585)"><g><path d="M 4.5 -8.03125 C 5.144531 -8 5.632812 -7.816406 5.96875 -7.484375 C 6.300781 -7.160156 6.488281 -6.765625 6.53125 -6.296875 C 6.570312 -5.835938 6.484375 -5.390625 6.265625 -4.953125 C 5.890625 -4.210938 5.273438 -3.691406 4.421875 -3.390625 C 3.578125 -3.097656 2.585938 -3.113281 1.453125 -3.4375 C 1.359375 -2.78125 1.460938 -2.222656 1.765625 -1.765625 C 2.066406 -1.304688 2.546875 -1.023438 3.203125 -0.921875 C 3.671875 -0.859375 4.203125 -0.921875 4.796875 -1.109375 C 5.390625 -1.296875 5.96875 -1.648438 6.53125 -2.171875 C 7.101562 -2.691406 7.585938 -3.425781 7.984375 -4.375 C 8.015625 -4.457031 8.082031 -4.484375 8.1875 -4.453125 C 8.289062 -4.421875 8.382812 -4.363281 8.46875 -4.28125 C 8.5625 -4.195312 8.59375 -4.109375 8.5625 -4.015625 C 8.164062 -3.054688 7.722656 -2.289062 7.234375 -1.71875 C 6.742188 -1.144531 6.242188 -0.71875 5.734375 -0.4375 C 5.222656 -0.15625 4.726562 0.0195312 4.25 0.09375 C 3.769531 0.164062 3.335938 0.195312 2.953125 0.1875 C 2.066406 0.132812 1.367188 -0.101562 0.859375 -0.53125 C 0.347656 -0.96875 0.03125 -1.519531 -0.09375 -2.1875 C -0.226562 -2.863281 -0.195312 -3.570312 0 -4.3125 C 0.226562 -5.101562 0.570312 -5.78125 1.03125 -6.34375 C 1.488281 -6.914062 2.019531 -7.347656 2.625 -7.640625 C 3.238281 -7.929688 3.863281 -8.0625 4.5 -8.03125 Z M 4.25 -6.9375 C 3.914062 -6.957031 3.566406 -6.84375 3.203125 -6.59375 C 2.847656 -6.34375 2.53125 -6.007812 2.25 -5.59375 C 1.96875 -5.1875 1.753906 -4.738281 1.609375 -4.25 C 2.390625 -4.09375 3.054688 -4.101562 3.609375 -4.28125 C 4.171875 -4.457031 4.570312 -4.78125 4.8125 -5.25 C 4.957031 -5.507812 5.039062 -5.765625 5.0625 -6.015625 C 5.09375 -6.273438 5.046875 -6.492188 4.921875 -6.671875 C 4.804688 -6.847656 4.582031 -6.9375 4.25 -6.9375 Z M 4.25 -6.9375 "/></g></g></g><g fill="#f8f5f3" fill-opacity="1"><g transform="translate(237.00704, 227.680585)"><g><path d="M 0.296875 -3.3125 C 0.273438 -3.25 0.207031 -3.234375 0.09375 -3.265625 C -0.0195312 -3.296875 -0.117188 -3.347656 -0.203125 -3.421875 C -0.296875 -3.492188 -0.320312 -3.5625 -0.28125 -3.625 C -0.0195312 -4.195312 0.191406 -4.707031 0.359375 -5.15625 C 0.535156 -5.601562 0.691406 -6.046875 0.828125 -6.484375 C 0.972656 -6.929688 1.113281 -7.425781 1.25 -7.96875 C 0.9375 -8.394531 0.785156 -8.769531 0.796875 -9.09375 C 0.816406 -9.414062 0.925781 -9.660156 1.125 -9.828125 C 1.320312 -9.992188 1.535156 -10.0625 1.765625 -10.03125 C 1.992188 -10.007812 2.171875 -9.875 2.296875 -9.625 C 2.429688 -9.375 2.4375 -9 2.3125 -8.5 C 2.550781 -8.226562 2.816406 -7.945312 3.109375 -7.65625 C 3.410156 -7.375 3.679688 -7.085938 3.921875 -6.796875 C 4.160156 -6.503906 4.320312 -6.21875 4.40625 -5.9375 C 4.488281 -5.65625 4.429688 -5.390625 4.234375 -5.140625 C 3.835938 -4.648438 3.476562 -4.128906 3.15625 -3.578125 C 2.84375 -3.035156 2.6875 -2.503906 2.6875 -1.984375 C 2.6875 -1.679688 2.753906 -1.429688 2.890625 -1.234375 C 3.035156 -1.046875 3.257812 -0.953125 3.5625 -0.953125 C 4.0625 -0.929688 4.632812 -1.191406 5.28125 -1.734375 C 5.9375 -2.273438 6.515625 -3.15625 7.015625 -4.375 C 7.054688 -4.445312 7.128906 -4.460938 7.234375 -4.421875 C 7.335938 -4.390625 7.429688 -4.332031 7.515625 -4.25 C 7.609375 -4.175781 7.640625 -4.097656 7.609375 -4.015625 C 7.066406 -2.753906 6.421875 -1.734375 5.671875 -0.953125 C 4.921875 -0.179688 4.054688 0.191406 3.078125 0.171875 C 2.398438 0.140625 1.894531 -0.0664062 1.5625 -0.453125 C 1.238281 -0.847656 1.078125 -1.328125 1.078125 -1.890625 C 1.066406 -2.503906 1.226562 -3.113281 1.5625 -3.71875 C 1.894531 -4.332031 2.257812 -4.925781 2.65625 -5.5 C 2.820312 -5.726562 2.859375 -5.957031 2.765625 -6.1875 C 2.671875 -6.425781 2.523438 -6.648438 2.328125 -6.859375 C 2.128906 -7.078125 1.953125 -7.273438 1.796875 -7.453125 C 1.640625 -6.835938 1.445312 -6.195312 1.21875 -5.53125 C 1 -4.875 0.691406 -4.132812 0.296875 -3.3125 Z M 0.296875 -3.3125 "/></g></g></g><g fill="#f8f5f3" fill-opacity="1"><g transform="translate(244.138588, 227.680585)"><g><path d="M 4.5 -8.03125 C 5.144531 -8 5.632812 -7.816406 5.96875 -7.484375 C 6.300781 -7.160156 6.488281 -6.765625 6.53125 -6.296875 C 6.570312 -5.835938 6.484375 -5.390625 6.265625 -4.953125 C 5.890625 -4.210938 5.273438 -3.691406 4.421875 -3.390625 C 3.578125 -3.097656 2.585938 -3.113281 1.453125 -3.4375 C 1.359375 -2.78125 1.460938 -2.222656 1.765625 -1.765625 C 2.066406 -1.304688 2.546875 -1.023438 3.203125 -0.921875 C 3.671875 -0.859375 4.203125 -0.921875 4.796875 -1.109375 C 5.390625 -1.296875 5.96875 -1.648438 6.53125 -2.171875 C 7.101562 -2.691406 7.585938 -3.425781 7.984375 -4.375 C 8.015625 -4.457031 8.082031 -4.484375 8.1875 -4.453125 C 8.289062 -4.421875 8.382812 -4.363281 8.46875 -4.28125 C 8.5625 -4.195312 8.59375 -4.109375 8.5625 -4.015625 C 8.164062 -3.054688 7.722656 -2.289062 7.234375 -1.71875 C 6.742188 -1.144531 6.242188 -0.71875 5.734375 -0.4375 C 5.222656 -0.15625 4.726562 0.0195312 4.25 0.09375 C 3.769531 0.164062 3.335938 0.195312 2.953125 0.1875 C 2.066406 0.132812 1.367188 -0.101562 0.859375 -0.53125 C 0.347656 -0.96875 0.03125 -1.519531 -0.09375 -2.1875 C -0.226562 -2.863281 -0.195312 -3.570312 0 -4.3125 C 0.226562 -5.101562 0.570312 -5.78125 1.03125 -6.34375 C 1.488281 -6.914062 2.019531 -7.347656 2.625 -7.640625 C 3.238281 -7.929688 3.863281 -8.0625 4.5 -8.03125 Z M 4.25 -6.9375 C 3.914062 -6.957031 3.566406 -6.84375 3.203125 -6.59375 C 2.847656 -6.34375 2.53125 -6.007812 2.25 -5.59375 C 1.96875 -5.1875 1.753906 -4.738281 1.609375 -4.25 C 2.390625 -4.09375 3.054688 -4.101562 3.609375 -4.28125 C 4.171875 -4.457031 4.570312 -4.78125 4.8125 -5.25 C 4.957031 -5.507812 5.039062 -5.765625 5.0625 -6.015625 C 5.09375 -6.273438 5.046875 -6.492188 4.921875 -6.671875 C 4.804688 -6.847656 4.582031 -6.9375 4.25 -6.9375 Z M 4.25 -6.9375 "/></g></g></g></svg>