<svg xmlns="http://www.w3.org/2000/svg" xmlns:xlink="http://www.w3.org/1999/xlink" width="500" zoomAndPan="magnify" viewBox="0 0 375 374.999991" height="500" preserveAspectRatio="xMidYMid meet" version="1.0"><defs><clipPath id="40bccefaa5"><path d="M 269 291 L 329 291 L 329 339.785156 L 269 339.785156 Z M 269 291 " clip-rule="nonzero"/></clipPath><clipPath id="632f0adf85"><path d="M 39 291 L 98 291 L 98 339.785156 L 39 339.785156 Z M 39 291 " clip-rule="nonzero"/></clipPath><clipPath id="3737107c58"><path d="M 37.5 117 L 123 117 L 123 144 L 37.5 144 Z M 37.5 117 " clip-rule="nonzero"/></clipPath><clipPath id="ccfc80ff82"><path d="M 265 101 L 337.5 101 L 337.5 171 L 265 171 Z M 265 101 " clip-rule="nonzero"/></clipPath></defs><g clip-path="url(#40bccefaa5)"><path fill="#f6475f" d="M 327.160156 298.722656 C 327.863281 298.722656 328.4375 298.144531 328.4375 297.441406 C 328.4375 296.738281 327.863281 296.160156 327.160156 296.160156 L 323.316406 296.160156 L 323.316406 292.320312 C 323.316406 291.613281 322.738281 291.039062 322.035156 291.039062 C 321.332031 291.039062 320.753906 291.613281 320.753906 292.320312 L 320.753906 296.160156 L 307.949219 296.160156 L 307.949219 292.320312 C 307.949219 291.613281 307.371094 291.039062 306.667969 291.039062 C 305.964844 291.039062 305.386719 291.613281 305.386719 292.320312 L 305.386719 296.160156 L 292.578125 296.160156 L 292.578125 292.320312 C 292.578125 291.613281 292.003906 291.039062 291.300781 291.039062 C 290.59375 291.039062 290.019531 291.613281 290.019531 292.320312 L 290.019531 296.160156 L 277.210938 296.160156 L 277.210938 292.320312 C 277.210938 291.613281 276.636719 291.039062 275.929688 291.039062 C 275.226562 291.039062 274.648438 291.613281 274.648438 292.320312 L 274.648438 296.160156 L 270.808594 296.160156 C 270.105469 296.160156 269.527344 296.738281 269.527344 297.441406 C 269.527344 298.144531 270.105469 298.722656 270.808594 298.722656 L 274.648438 298.722656 L 274.648438 332.019531 L 270.808594 332.019531 C 270.105469 332.019531 269.527344 332.597656 269.527344 333.300781 C 269.527344 334.003906 270.105469 334.582031 270.808594 334.582031 L 274.648438 334.582031 L 274.648438 338.421875 C 274.648438 339.128906 275.226562 339.703125 275.929688 339.703125 C 276.636719 339.703125 277.210938 339.128906 277.210938 338.421875 L 277.210938 334.582031 L 290.019531 334.582031 L 290.019531 338.421875 C 290.019531 339.128906 290.59375 339.703125 291.300781 339.703125 C 292.003906 339.703125 292.578125 339.128906 292.578125 338.421875 L 292.578125 334.582031 L 305.386719 334.582031 L 305.386719 338.421875 C 305.386719 339.128906 305.964844 339.703125 306.667969 339.703125 C 307.371094 339.703125 307.949219 339.128906 307.949219 338.421875 L 307.949219 334.582031 L 320.753906 334.582031 L 320.753906 338.421875 C 320.753906 339.128906 321.332031 339.703125 322.035156 339.703125 C 322.738281 339.703125 323.316406 339.128906 323.316406 338.421875 L 323.316406 334.582031 L 327.160156 334.582031 C 327.863281 334.582031 328.4375 334.003906 328.4375 333.300781 C 328.4375 332.597656 327.863281 332.019531 327.160156 332.019531 L 323.316406 332.019531 L 323.316406 298.722656 Z M 290.019531 332.019531 L 277.210938 332.019531 L 277.210938 298.722656 L 290.019531 298.722656 Z M 305.386719 332.019531 L 292.578125 332.019531 L 292.578125 298.722656 L 305.386719 298.722656 Z M 320.753906 332.019531 L 307.949219 332.019531 L 307.949219 298.722656 L 320.753906 298.722656 Z M 320.753906 332.019531 " fill-opacity="1" fill-rule="nonzero"/></g><g clip-path="url(#632f0adf85)"><path fill="#f6475f" d="M 96.636719 298.722656 C 97.339844 298.722656 97.917969 298.144531 97.917969 297.441406 C 97.917969 296.738281 97.339844 296.160156 96.636719 296.160156 L 92.792969 296.160156 L 92.792969 292.320312 C 92.792969 291.613281 92.21875 291.039062 91.511719 291.039062 C 90.808594 291.039062 90.230469 291.613281 90.230469 292.320312 L 90.230469 296.160156 L 77.425781 296.160156 L 77.425781 292.320312 C 77.425781 291.613281 76.847656 291.039062 76.144531 291.039062 C 75.441406 291.039062 74.863281 291.613281 74.863281 292.320312 L 74.863281 296.160156 L 62.058594 296.160156 L 62.058594 292.320312 C 62.058594 291.613281 61.480469 291.039062 60.777344 291.039062 C 60.070312 291.039062 59.496094 291.613281 59.496094 292.320312 L 59.496094 296.160156 L 46.6875 296.160156 L 46.6875 292.320312 C 46.6875 291.613281 46.113281 291.039062 45.410156 291.039062 C 44.703125 291.039062 44.128906 291.613281 44.128906 292.320312 L 44.128906 296.160156 L 40.285156 296.160156 C 39.582031 296.160156 39.003906 296.738281 39.003906 297.441406 C 39.003906 298.144531 39.582031 298.722656 40.285156 298.722656 L 44.128906 298.722656 L 44.128906 332.019531 L 40.285156 332.019531 C 39.582031 332.019531 39.003906 332.597656 39.003906 333.300781 C 39.003906 334.003906 39.582031 334.582031 40.285156 334.582031 L 44.128906 334.582031 L 44.128906 338.421875 C 44.128906 339.128906 44.703125 339.703125 45.410156 339.703125 C 46.113281 339.703125 46.6875 339.128906 46.6875 338.421875 L 46.6875 334.582031 L 59.496094 334.582031 L 59.496094 338.421875 C 59.496094 339.128906 60.070312 339.703125 60.777344 339.703125 C 61.480469 339.703125 62.058594 339.128906 62.058594 338.421875 L 62.058594 334.582031 L 74.863281 334.582031 L 74.863281 338.421875 C 74.863281 339.128906 75.441406 339.703125 76.144531 339.703125 C 76.847656 339.703125 77.425781 339.128906 77.425781 338.421875 L 77.425781 334.582031 L 90.230469 334.582031 L 90.230469 338.421875 C 90.230469 339.128906 90.808594 339.703125 91.511719 339.703125 C 92.21875 339.703125 92.792969 339.128906 92.792969 338.421875 L 92.792969 334.582031 L 96.636719 334.582031 C 97.339844 334.582031 97.917969 334.003906 97.917969 333.300781 C 97.917969 332.597656 97.339844 332.019531 96.636719 332.019531 L 92.792969 332.019531 L 92.792969 298.722656 Z M 59.496094 332.019531 L 46.6875 332.019531 L 46.6875 298.722656 L 59.496094 298.722656 Z M 74.863281 332.019531 L 62.058594 332.019531 L 62.058594 298.722656 L 74.863281 298.722656 Z M 90.230469 332.019531 L 77.425781 332.019531 L 77.425781 298.722656 L 90.230469 298.722656 Z M 90.230469 332.019531 " fill-opacity="1" fill-rule="nonzero"/></g><path fill="#f6475f" d="M 248.714844 130.824219 L 241.671875 130.570312 C 240.390625 135.242188 239.113281 140.300781 237.832031 145.808594 L 246.601562 145.808594 C 247.179688 140.8125 247.949219 135.820312 248.714844 130.824219 Z M 248.714844 130.824219 " fill-opacity="1" fill-rule="nonzero"/><path fill="#f6475f" d="M 246.285156 148.371094 L 237.191406 148.371094 C 235.910156 154.003906 234.628906 160.023438 233.347656 166.363281 L 244.425781 166.300781 C 244.9375 160.28125 245.515625 154.324219 246.285156 148.371094 Z M 246.285156 148.371094 " fill-opacity="1" fill-rule="nonzero"/><path fill="#f6475f" d="M 120.070312 182.050781 C 115.269531 188.902344 112.324219 196.84375 111.492188 205.105469 C 113.414062 203.503906 115.332031 201.902344 117.320312 200.367188 C 118.085938 199.726562 132.878906 188.902344 139.667969 184.742188 C 139.601562 184.742188 139.601562 184.742188 139.601562 184.742188 C 138.257812 184.742188 137.679688 184.996094 136.914062 185.316406 C 136.082031 185.636719 135.121094 186.023438 133.261719 186.023438 C 131.46875 186.023438 130.507812 185.636719 129.613281 185.316406 C 129.035156 185.0625 128.523438 184.871094 127.691406 184.804688 C 127.308594 184.742188 126.921875 184.550781 126.730469 184.230469 C 126.539062 183.910156 126.476562 183.460938 126.605469 183.078125 C 127.5 180.835938 128.652344 178.660156 130.125 176.671875 C 130.765625 175.839844 131.46875 175.007812 132.175781 174.238281 C 130.316406 173.984375 128.589844 173.214844 127.050781 172.0625 Z M 120.070312 182.050781 " fill-opacity="1" fill-rule="nonzero"/><path fill="#f6475f" d="M 126.796875 157.464844 C 123.851562 161.433594 124.617188 167.066406 128.589844 170.011719 C 130.382812 171.359375 132.621094 172 134.929688 171.742188 C 135.441406 171.359375 135.886719 170.972656 136.402344 170.589844 L 142.164062 166.492188 C 143.894531 162.714844 142.738281 158.167969 139.410156 155.671875 C 135.375 152.722656 129.742188 153.492188 126.796875 157.464844 Z M 126.796875 157.464844 " fill-opacity="1" fill-rule="nonzero"/><path fill="#f6475f" d="M 140.113281 148.242188 C 139.21875 149.394531 138.640625 150.804688 138.449219 152.210938 C 139.28125 152.597656 140.113281 153.042969 140.882812 153.621094 C 143.765625 155.796875 145.367188 159 145.492188 162.394531 C 146.261719 162.523438 146.964844 162.585938 147.734375 162.585938 L 155.609375 157.015625 C 157.082031 153.300781 155.929688 148.945312 152.664062 146.511719 C 149.976562 144.464844 146.390625 144.144531 143.378906 145.617188 C 142.101562 146.191406 141.011719 147.089844 140.113281 148.242188 Z M 140.113281 148.242188 " fill-opacity="1" fill-rule="nonzero"/><path fill="#f6475f" d="M 111.171875 180.132812 C 100.605469 189.609375 95.675781 203.566406 97.917969 217.527344 C 99.195312 216.246094 106.496094 209.457031 108.800781 207.472656 C 108.800781 207.21875 108.800781 206.898438 108.867188 206.640625 C 109.507812 197.292969 112.644531 188.261719 118.023438 180.578125 L 125.195312 170.332031 C 124.746094 169.820312 124.296875 169.246094 123.976562 168.605469 Z M 111.171875 180.132812 " fill-opacity="1" fill-rule="nonzero"/><path fill="#f6475f" d="M 240.070312 184.675781 C 239.496094 184.933594 238.855469 184.675781 238.535156 184.164062 C 238.34375 184.292969 238.152344 184.421875 238.023438 184.484375 C 237.0625 185.125 235.78125 185.957031 234.054688 185.957031 C 232.195312 185.957031 231.234375 185.574219 230.402344 185.253906 C 229.632812 184.933594 229.058594 184.742188 227.777344 184.675781 C 232.898438 187.816406 237.957031 191.207031 242.824219 194.792969 C 243.082031 186.148438 243.53125 177.503906 244.171875 168.859375 L 232.835938 168.925781 C 232.644531 169.757812 232.515625 170.652344 232.324219 171.550781 C 236.101562 174.558594 239.046875 178.464844 240.777344 183.011719 C 241.03125 183.652344 240.710938 184.421875 240.070312 184.675781 Z M 240.070312 184.675781 " fill-opacity="1" fill-rule="nonzero"/><path fill="#f6475f" d="M 150.871094 133.320312 L 146.070312 142.160156 C 146.902344 142.09375 147.800781 142.09375 148.632812 142.160156 L 153.496094 137.484375 C 158.683594 132.425781 164.703125 128.390625 171.363281 125.511719 C 178.984375 122.179688 187.117188 120.515625 195.441406 120.515625 C 198.835938 120.515625 202.292969 120.835938 205.621094 121.410156 L 219.324219 123.78125 L 212.539062 119.042969 C 201.332031 111.167969 186.921875 109.179688 174.054688 113.792969 C 169.121094 115.519531 164.640625 118.082031 160.667969 121.476562 C 156.636719 124.742188 153.371094 128.777344 150.871094 133.320312 Z M 150.871094 133.320312 " fill-opacity="1" fill-rule="nonzero"/><path fill="#f6475f" d="M 229.953125 121.15625 C 228.035156 122.050781 226.175781 123.011719 224.382812 124.164062 L 225.40625 124.871094 C 225.855469 125.191406 226.046875 125.765625 225.921875 126.34375 C 225.726562 126.855469 225.28125 127.238281 224.703125 127.238281 C 223.167969 127.175781 221.695312 127.175781 220.15625 127.238281 C 212.410156 133.515625 206.902344 142.160156 204.46875 151.765625 L 211.832031 157.015625 C 213.304688 153.621094 215.035156 150.355469 216.890625 147.152344 L 217.082031 146.898438 C 220.796875 140.6875 225.28125 134.988281 230.402344 129.863281 L 235.078125 125.191406 C 234.5 124.996094 233.925781 124.675781 233.414062 124.421875 C 232.003906 123.460938 230.851562 122.4375 229.953125 121.15625 Z M 229.953125 121.15625 " fill-opacity="1" fill-rule="nonzero"/><path fill="#f6475f" d="M 228.546875 118.660156 C 225.726562 119.234375 222.976562 120.132812 220.285156 121.285156 L 222.140625 122.5625 C 224.191406 121.15625 226.367188 119.9375 228.675781 118.914062 C 228.609375 118.851562 228.546875 118.722656 228.546875 118.660156 Z M 228.546875 118.660156 " fill-opacity="1" fill-rule="nonzero"/><path fill="#f6475f" d="M 237.511719 181.859375 C 237.191406 182.050781 236.933594 182.246094 236.613281 182.4375 C 235.847656 182.949219 235.011719 183.523438 234.117188 183.523438 C 232.773438 183.523438 232.195312 183.269531 231.425781 182.949219 C 230.59375 182.628906 229.632812 182.246094 227.777344 182.246094 C 225.921875 182.246094 224.960938 182.628906 224.128906 182.949219 C 223.359375 183.269531 222.78125 183.523438 221.4375 183.523438 C 220.09375 183.523438 219.515625 183.269531 218.75 182.949219 C 217.917969 182.628906 216.957031 182.246094 215.097656 182.246094 C 213.242188 182.246094 212.28125 182.628906 211.449219 182.949219 C 210.679688 183.269531 210.105469 183.523438 208.757812 183.523438 C 207.414062 183.523438 206.839844 183.269531 206.070312 182.949219 C 205.238281 182.628906 204.277344 182.246094 202.417969 182.246094 C 200.5625 182.246094 199.601562 182.628906 198.769531 182.949219 C 198.066406 183.269531 197.425781 183.523438 196.082031 183.523438 C 194.734375 183.523438 194.160156 183.269531 193.390625 182.949219 C 192.558594 182.628906 191.597656 182.246094 189.742188 182.246094 C 187.882812 182.246094 186.921875 182.628906 186.089844 182.949219 C 185.324219 183.269531 184.746094 183.523438 183.402344 183.523438 C 182.058594 183.523438 181.480469 183.269531 180.710938 182.949219 C 179.878906 182.628906 178.917969 182.246094 177.0625 182.246094 C 175.207031 182.246094 174.246094 182.628906 173.414062 182.949219 C 172.644531 183.269531 172.066406 183.523438 170.722656 183.523438 C 169.378906 183.523438 168.800781 183.269531 168.035156 182.949219 C 167.199219 182.628906 166.242188 182.246094 164.382812 182.246094 C 162.589844 182.246094 161.628906 182.628906 160.734375 182.949219 C 159.964844 183.269531 159.390625 183.523438 158.042969 183.523438 C 156.699219 183.523438 156.125 183.269531 155.355469 182.949219 C 154.523438 182.628906 153.5625 182.246094 151.703125 182.246094 C 149.910156 182.246094 148.953125 182.628906 148.054688 182.949219 C 147.285156 183.269531 146.710938 183.523438 145.367188 183.523438 C 144.019531 183.523438 143.445312 183.269531 142.738281 182.949219 C 141.90625 182.628906 140.945312 182.246094 139.089844 182.246094 C 137.234375 182.246094 136.273438 182.628906 135.441406 182.949219 C 134.671875 183.269531 134.09375 183.523438 132.75 183.523438 C 131.40625 183.523438 130.828125 183.269531 130.0625 182.949219 C 129.742188 182.820312 129.484375 182.691406 129.101562 182.5625 C 129.804688 181.027344 130.703125 179.554688 131.726562 178.210938 C 133.261719 176.097656 135.183594 174.238281 137.359375 172.703125 L 140.628906 170.398438 C 140.820312 170.460938 141.011719 170.589844 141.203125 170.71875 C 141.84375 171.101562 142.613281 171.550781 144.085938 171.550781 C 145.558594 171.550781 146.390625 171.101562 147.03125 170.71875 C 147.542969 170.460938 147.863281 170.207031 148.695312 170.207031 C 149.527344 170.207031 149.847656 170.398438 150.359375 170.652344 C 151 171.039062 151.769531 171.421875 153.242188 171.421875 C 154.714844 171.421875 155.546875 170.972656 156.1875 170.589844 C 156.699219 170.332031 157.019531 170.078125 157.851562 170.078125 C 158.683594 170.078125 159.003906 170.269531 159.515625 170.527344 C 160.15625 170.910156 160.925781 171.292969 162.398438 171.292969 C 163.871094 171.292969 164.703125 170.847656 165.28125 170.460938 C 165.792969 170.140625 166.113281 169.949219 166.945312 169.949219 C 167.777344 169.949219 168.097656 170.140625 168.609375 170.398438 C 169.25 170.78125 170.019531 171.230469 171.492188 171.230469 C 172.964844 171.230469 173.796875 170.78125 174.4375 170.398438 C 174.949219 170.140625 175.269531 169.886719 176.101562 169.886719 C 176.933594 169.886719 177.253906 170.078125 177.765625 170.332031 C 178.40625 170.71875 179.175781 171.101562 180.648438 171.101562 C 182.121094 171.101562 182.953125 170.652344 183.59375 170.269531 C 184.105469 170.011719 184.425781 169.757812 185.257812 169.757812 C 186.027344 169.757812 186.410156 169.949219 186.921875 170.207031 C 187.5625 170.527344 188.332031 170.972656 189.804688 170.972656 C 191.277344 170.972656 192.109375 170.527344 192.75 170.140625 C 193.261719 169.820312 193.582031 169.628906 194.414062 169.628906 C 195.25 169.628906 195.566406 169.820312 196.082031 170.078125 C 196.722656 170.460938 197.488281 170.910156 198.960938 170.910156 C 200.433594 170.910156 201.265625 170.460938 201.90625 170.078125 C 202.417969 169.757812 202.738281 169.566406 203.574219 169.566406 C 204.40625 169.566406 204.726562 169.757812 205.238281 170.011719 C 205.878906 170.398438 206.644531 170.78125 208.117188 170.78125 C 209.589844 170.78125 210.359375 170.332031 211 169.949219 C 211.511719 169.695312 211.832031 169.4375 212.664062 169.4375 C 213.496094 169.4375 213.816406 169.628906 214.332031 169.886719 C 214.96875 170.269531 215.738281 170.652344 217.210938 170.652344 C 218.683594 170.652344 219.515625 170.207031 220.15625 169.820312 C 220.667969 169.566406 220.988281 169.308594 221.824219 169.308594 C 222.65625 169.308594 222.976562 169.5 223.488281 169.757812 C 224.128906 170.140625 224.894531 170.527344 226.367188 170.527344 C 226.367188 170.527344 226.625 170.527344 226.882812 170.527344 L 228.867188 171.933594 C 232.964844 175.074219 235.652344 178.210938 237.511719 181.859375 Z M 237.511719 181.859375 " fill-opacity="1" fill-rule="nonzero"/><path fill="#f6475f" d="M 244.363281 199.148438 C 243.976562 199.339844 243.53125 199.46875 242.824219 199.46875 C 241.929688 199.46875 241.480469 199.277344 240.96875 198.957031 C 240.328125 198.636719 239.433594 198.1875 237.894531 198.1875 C 236.359375 198.1875 235.527344 198.636719 234.820312 198.957031 C 234.246094 199.214844 233.859375 199.46875 232.964844 199.46875 C 232.066406 199.46875 231.621094 199.277344 231.105469 198.957031 C 230.46875 198.636719 229.570312 198.1875 228.035156 198.1875 C 226.496094 198.1875 225.664062 198.636719 224.960938 198.957031 C 224.382812 199.214844 224 199.46875 223.101562 199.46875 C 222.207031 199.46875 221.757812 199.277344 221.246094 198.957031 C 220.605469 198.636719 219.773438 198.1875 218.171875 198.1875 C 216.636719 198.1875 215.804688 198.636719 215.097656 198.957031 C 214.523438 199.214844 214.136719 199.46875 213.242188 199.46875 C 212.34375 199.46875 211.960938 199.277344 211.386719 198.957031 C 210.746094 198.636719 209.847656 198.1875 208.3125 198.1875 C 206.773438 198.1875 205.941406 198.636719 205.238281 198.957031 C 204.660156 199.214844 204.277344 199.46875 203.378906 199.46875 C 202.484375 199.46875 202.101562 199.277344 201.523438 198.957031 C 200.882812 198.636719 199.988281 198.1875 198.449219 198.1875 C 196.914062 198.1875 196.082031 198.636719 195.375 198.957031 C 194.800781 199.214844 194.414062 199.46875 193.519531 199.46875 C 192.621094 199.46875 192.175781 199.277344 191.664062 198.957031 C 190.957031 198.636719 190.125 198.1875 188.589844 198.1875 C 187.050781 198.1875 186.21875 198.636719 185.515625 198.957031 C 184.9375 199.214844 184.554688 199.46875 183.65625 199.46875 C 182.761719 199.46875 182.3125 199.277344 181.800781 198.957031 C 181.097656 198.636719 180.265625 198.1875 178.726562 198.1875 C 177.191406 198.1875 176.359375 198.636719 175.652344 198.957031 C 175.078125 199.214844 174.691406 199.46875 173.796875 199.46875 C 172.898438 199.46875 172.453125 199.277344 171.941406 198.957031 C 171.234375 198.636719 170.402344 198.1875 168.867188 198.1875 C 167.328125 198.1875 166.496094 198.636719 165.792969 198.957031 C 165.214844 199.214844 164.832031 199.46875 163.9375 199.46875 C 163.421875 199.46875 163.039062 199.40625 162.71875 199.277344 L 162.71875 199.019531 L 162.144531 199.019531 C 162.144531 199.019531 162.078125 199.019531 162.078125 199.019531 C 161.375 198.699219 160.542969 198.253906 159.003906 198.253906 C 157.46875 198.253906 156.636719 198.699219 155.996094 199.019531 L 152.152344 199.019531 C 151.511719 198.699219 150.679688 198.253906 149.144531 198.253906 C 147.671875 198.253906 146.902344 198.636719 146.199219 198.957031 L 145.8125 198.957031 L 145.8125 199.148438 C 145.367188 199.339844 144.980469 199.535156 144.214844 199.535156 C 143.316406 199.535156 142.867188 199.339844 142.355469 199.019531 C 141.652344 198.699219 140.820312 198.253906 139.28125 198.253906 C 137.746094 198.253906 136.914062 198.699219 136.207031 199.019531 C 135.632812 199.277344 135.25 199.535156 134.351562 199.535156 C 133.457031 199.535156 133.007812 199.339844 132.496094 199.019531 C 131.789062 198.699219 130.957031 198.253906 129.421875 198.253906 C 127.882812 198.253906 127.050781 198.699219 126.347656 199.019531 C 125.769531 199.339844 125.386719 199.535156 124.492188 199.535156 C 123.785156 199.535156 123.339844 199.40625 122.953125 199.214844 C 128.71875 194.859375 134.734375 190.761719 140.882812 186.984375 L 142.996094 185.703125 C 143.636719 185.957031 144.46875 186.085938 145.6875 186.085938 C 147.542969 186.085938 148.503906 185.703125 149.335938 185.382812 C 150.105469 185.0625 150.679688 184.804688 152.023438 184.804688 C 153.371094 184.804688 153.945312 185.0625 154.714844 185.382812 C 155.546875 185.703125 156.507812 186.085938 158.363281 186.085938 C 160.222656 186.085938 161.183594 185.703125 162.015625 185.382812 C 162.78125 185.0625 163.359375 184.804688 164.703125 184.804688 C 166.046875 184.804688 166.625 185.0625 167.394531 185.382812 C 168.226562 185.703125 169.1875 186.085938 171.042969 186.085938 C 172.898438 186.085938 173.859375 185.703125 174.691406 185.382812 C 175.460938 185.0625 176.039062 184.804688 177.382812 184.804688 C 178.726562 184.804688 179.304688 185.0625 180.070312 185.382812 C 180.90625 185.703125 181.863281 186.085938 183.722656 186.085938 C 185.578125 186.085938 186.539062 185.703125 187.371094 185.382812 C 188.140625 185.0625 188.71875 184.804688 190.0625 184.804688 C 191.40625 184.804688 191.984375 185.0625 192.75 185.382812 C 193.582031 185.703125 194.542969 186.085938 196.402344 186.085938 C 198.257812 186.085938 199.21875 185.703125 200.050781 185.382812 C 200.820312 185.0625 201.394531 184.804688 202.742188 184.804688 C 204.085938 184.804688 204.660156 185.0625 205.429688 185.382812 C 206.261719 185.703125 207.222656 186.085938 209.078125 186.085938 C 210.9375 186.085938 211.898438 185.703125 212.730469 185.382812 C 213.5 185.0625 214.074219 184.804688 215.417969 184.804688 C 216.765625 184.804688 217.339844 185.0625 218.109375 185.382812 C 218.941406 185.703125 219.902344 186.085938 221.757812 186.085938 C 223.039062 186.085938 223.871094 185.894531 224.574219 185.636719 L 226.6875 186.917969 C 232.578125 190.695312 238.535156 194.792969 244.363281 199.148438 Z M 244.363281 199.148438 " fill-opacity="1" fill-rule="nonzero"/><path fill="#f6475f" d="M 67.882812 172.445312 C 78.195312 160.089844 93.304688 152.980469 109.378906 152.980469 L 123.335938 152.980469 C 123.273438 152.917969 123.273438 152.851562 123.210938 152.789062 L 106.367188 149.652344 C 92.21875 147.027344 77.746094 150.738281 66.667969 159.960938 C 55.589844 169.179688 49.25 182.691406 49.25 197.101562 C 49.25 199.917969 49.507812 202.734375 49.953125 205.488281 L 54.179688 229.5 L 55.460938 204.273438 C 55.78125 198.445312 57 192.746094 59.113281 187.304688 C 61.160156 181.988281 64.171875 176.929688 67.882812 172.445312 Z M 67.882812 172.445312 " fill-opacity="1" fill-rule="nonzero"/><path fill="#f6475f" d="M 108.035156 214.835938 C 109.378906 214.835938 109.953125 214.582031 110.722656 214.261719 C 111.554688 213.941406 112.515625 213.558594 114.375 213.558594 C 116.230469 213.558594 117.191406 213.941406 118.023438 214.261719 C 118.792969 214.582031 119.367188 214.835938 120.710938 214.835938 C 122.058594 214.835938 122.632812 214.582031 123.402344 214.261719 C 124.234375 213.941406 125.195312 213.558594 127.050781 213.558594 C 128.84375 213.558594 129.804688 213.941406 130.703125 214.261719 C 131.46875 214.582031 132.046875 214.835938 133.390625 214.835938 C 134.734375 214.835938 135.3125 214.582031 136.082031 214.261719 C 136.914062 213.941406 137.875 213.558594 139.730469 213.558594 C 141.585938 213.558594 142.484375 213.941406 143.378906 214.261719 C 144.148438 214.582031 144.726562 214.835938 146.070312 214.835938 C 147.414062 214.835938 147.992188 214.582031 148.757812 214.261719 C 149.59375 213.941406 150.550781 213.558594 152.410156 213.558594 C 154.203125 213.558594 155.164062 213.941406 156.058594 214.261719 C 156.828125 214.582031 157.402344 214.835938 158.75 214.835938 C 160.09375 214.835938 160.667969 214.582031 161.4375 214.261719 C 162.269531 213.941406 163.230469 213.558594 165.089844 213.558594 C 166.945312 213.558594 167.839844 213.941406 168.738281 214.261719 C 169.507812 214.582031 170.082031 214.835938 171.425781 214.835938 C 172.773438 214.835938 173.347656 214.582031 174.117188 214.261719 C 174.949219 213.941406 175.910156 213.558594 177.765625 213.558594 C 179.625 213.558594 180.585938 213.941406 181.417969 214.261719 C 182.183594 214.582031 182.761719 214.835938 184.105469 214.835938 C 185.449219 214.835938 186.027344 214.582031 186.796875 214.261719 C 187.628906 213.941406 188.589844 213.558594 190.445312 213.558594 C 192.300781 213.558594 193.261719 213.941406 194.09375 214.261719 C 194.863281 214.582031 195.441406 214.835938 196.785156 214.835938 C 198.128906 214.835938 198.707031 214.582031 199.472656 214.261719 C 200.308594 213.941406 201.265625 213.558594 203.125 213.558594 C 204.980469 213.558594 205.941406 213.941406 206.773438 214.261719 C 207.542969 214.582031 208.117188 214.835938 209.464844 214.835938 C 210.808594 214.835938 211.382812 214.582031 212.152344 214.261719 C 212.984375 213.941406 213.945312 213.558594 215.804688 213.558594 C 217.660156 213.558594 218.621094 213.941406 219.453125 214.261719 C 220.222656 214.582031 220.796875 214.835938 222.140625 214.835938 C 223.488281 214.835938 224.0625 214.582031 224.832031 214.261719 C 225.664062 213.941406 226.625 213.558594 228.480469 213.558594 C 230.339844 213.558594 231.300781 213.941406 232.132812 214.261719 C 232.898438 214.582031 233.476562 214.835938 234.820312 214.835938 C 236.164062 214.835938 236.742188 214.582031 237.511719 214.261719 C 238.34375 213.941406 239.304688 213.558594 241.160156 213.558594 C 243.019531 213.558594 243.976562 213.941406 244.8125 214.261719 C 245.578125 214.582031 246.15625 214.835938 247.5 214.835938 C 248.84375 214.835938 249.421875 214.582031 250.191406 214.261719 C 251.023438 213.941406 251.984375 213.558594 253.839844 213.558594 C 255.695312 213.558594 256.65625 213.941406 257.488281 214.261719 C 258.257812 214.582031 258.835938 214.835938 260.179688 214.835938 C 261.523438 214.835938 262.101562 214.582031 262.867188 214.261719 C 262.996094 214.195312 263.125 214.195312 263.1875 214.132812 C 258.195312 209.457031 252.941406 205.039062 247.5 200.878906 C 247.242188 200.941406 246.988281 201.070312 246.730469 201.199219 C 246.027344 201.519531 245.195312 201.964844 243.65625 201.964844 C 242.121094 201.964844 241.289062 201.519531 240.585938 201.199219 C 240.007812 200.941406 239.625 200.6875 238.726562 200.6875 C 237.832031 200.6875 237.382812 200.878906 236.871094 201.199219 C 236.167969 201.519531 235.332031 201.964844 233.796875 201.964844 C 232.261719 201.964844 231.425781 201.519531 230.722656 201.199219 C 230.148438 200.941406 229.761719 200.6875 228.867188 200.6875 C 227.96875 200.6875 227.519531 200.878906 227.007812 201.199219 C 226.304688 201.519531 225.472656 201.964844 223.9375 201.964844 C 222.398438 201.964844 221.566406 201.519531 220.863281 201.199219 C 220.285156 200.941406 219.902344 200.6875 219.003906 200.6875 C 218.109375 200.6875 217.660156 200.878906 217.148438 201.199219 C 216.507812 201.519531 215.609375 201.964844 214.074219 201.964844 C 212.539062 201.964844 211.707031 201.519531 211 201.199219 C 210.425781 200.941406 210.039062 200.6875 209.144531 200.6875 C 208.246094 200.6875 207.800781 200.878906 207.285156 201.199219 C 206.644531 201.519531 205.75 201.964844 204.214844 201.964844 C 202.675781 201.964844 201.84375 201.519531 201.140625 201.199219 C 200.5625 200.941406 200.179688 200.6875 199.28125 200.6875 C 198.386719 200.6875 197.9375 200.878906 197.425781 201.199219 C 196.785156 201.519531 195.890625 201.964844 194.351562 201.964844 C 192.816406 201.964844 191.984375 201.519531 191.277344 201.199219 C 190.703125 200.941406 190.316406 200.6875 189.421875 200.6875 C 188.523438 200.6875 188.078125 200.878906 187.5625 201.199219 C 186.925781 201.519531 186.027344 201.964844 184.492188 201.964844 C 182.953125 201.964844 182.121094 201.519531 181.417969 201.199219 C 180.839844 200.941406 180.457031 200.6875 179.558594 200.6875 C 178.664062 200.6875 178.214844 200.878906 177.703125 201.199219 C 177.0625 201.519531 176.167969 201.964844 174.628906 201.964844 C 173.09375 201.964844 172.261719 201.519531 171.554688 201.199219 C 170.980469 200.941406 170.59375 200.6875 169.699219 200.6875 C 168.800781 200.6875 168.355469 200.878906 167.84375 201.199219 C 167.203125 201.519531 166.304688 201.964844 164.769531 201.964844 C 163.679688 201.964844 162.910156 201.773438 162.335938 201.519531 L 157.339844 201.519531 C 156.765625 201.773438 155.996094 202.03125 154.84375 202.03125 C 153.691406 202.03125 152.921875 201.773438 152.28125 201.519531 L 147.605469 201.519531 C 147.03125 201.773438 146.199219 202.09375 144.980469 202.09375 C 143.445312 202.09375 142.613281 201.644531 141.90625 201.328125 C 141.332031 201.007812 140.949219 200.8125 140.050781 200.8125 C 139.15625 200.8125 138.707031 201.007812 138.195312 201.328125 C 137.554688 201.644531 136.65625 202.09375 135.121094 202.09375 C 133.582031 202.09375 132.75 201.644531 132.046875 201.328125 C 131.46875 201.070312 131.085938 200.8125 130.191406 200.8125 C 129.292969 200.8125 128.84375 201.007812 128.332031 201.328125 C 127.691406 201.644531 126.796875 202.09375 125.257812 202.09375 C 123.722656 202.09375 122.890625 201.644531 122.1875 201.328125 C 121.929688 201.199219 121.671875 201.070312 121.417969 201.007812 C 120.777344 201.519531 120.136719 201.964844 119.558594 202.480469 C 114.820312 206.191406 110.210938 210.164062 105.792969 214.261719 C 105.855469 214.324219 105.984375 214.324219 106.050781 214.390625 C 106.113281 214.582031 106.753906 214.835938 108.035156 214.835938 Z M 108.035156 214.835938 " fill-opacity="1" fill-rule="nonzero"/><path fill="#f6475f" d="M 290.722656 68.070312 C 301.992188 64.613281 314.222656 65.0625 325.171875 69.417969 L 331.578125 71.914062 L 317.359375 63.78125 C 311.855469 60.644531 305.644531 58.980469 299.304688 58.980469 C 294.628906 58.980469 290.082031 59.875 285.792969 61.605469 C 277.46875 64.933594 270.746094 71.144531 266.710938 79.148438 L 259.601562 93.300781 L 262.867188 88.5 C 269.65625 78.765625 279.515625 71.527344 290.722656 68.070312 Z M 290.722656 68.070312 " fill-opacity="1" fill-rule="nonzero"/><path fill="#f6475f" d="M 259.792969 102.457031 L 270.871094 93.238281 C 275.035156 89.777344 279.582031 86.769531 284.382812 84.335938 C 289.1875 81.902344 294.308594 79.980469 299.558594 78.699219 C 305.257812 77.292969 311.148438 76.523438 317.039062 76.523438 L 336.441406 76.523438 L 324.277344 71.722656 C 302.570312 63.203125 278.234375 70.695312 265.109375 89.90625 L 259.601562 97.910156 C 259.988281 99.449219 260.050781 100.984375 259.792969 102.457031 Z M 259.792969 102.457031 " fill-opacity="1" fill-rule="nonzero"/><path fill="#f6475f" d="M 79.347656 176.226562 C 82.035156 173.664062 84.980469 171.421875 88.183594 169.566406 C 91.320312 167.707031 94.714844 166.234375 98.300781 165.148438 L 123.914062 157.269531 C 124.171875 156.824219 124.425781 156.308594 124.8125 155.925781 C 124.875 155.796875 125.003906 155.734375 125.066406 155.605469 L 109.441406 155.605469 C 94.136719 155.605469 79.730469 162.328125 69.871094 174.113281 C 66.285156 178.402344 63.464844 183.140625 61.480469 188.328125 C 59.433594 193.515625 58.277344 198.957031 58.023438 204.464844 L 56.742188 230.398438 L 66.667969 197.101562 C 68.972656 189.160156 73.390625 181.925781 79.347656 176.226562 Z M 79.347656 176.226562 " fill-opacity="1" fill-rule="nonzero"/><path fill="#f6475f" d="M 195.375 123.078125 C 187.4375 123.078125 179.6875 124.675781 172.324219 127.878906 C 165.921875 130.632812 160.15625 134.539062 155.226562 139.339844 L 151.511719 142.925781 C 152.34375 143.246094 153.179688 143.695312 153.882812 144.207031 L 162.207031 139.726562 C 177.574219 131.402344 194.480469 126.46875 211.832031 125.0625 L 205.109375 123.910156 C 201.90625 123.332031 198.640625 123.078125 195.375 123.078125 Z M 195.375 123.078125 " fill-opacity="1" fill-rule="nonzero"/><path fill="#f6475f" d="M 222.207031 167.453125 C 220.925781 167.515625 220.222656 167.902344 219.582031 168.285156 C 219.070312 168.539062 218.75 168.796875 217.917969 168.796875 C 217.082031 168.796875 216.761719 168.605469 216.25 168.347656 C 215.609375 167.964844 214.84375 167.582031 213.371094 167.582031 C 211.898438 167.582031 211.066406 168.027344 210.425781 168.414062 C 209.910156 168.667969 209.589844 168.925781 208.757812 168.925781 C 207.925781 168.925781 207.605469 168.734375 207.09375 168.476562 C 206.453125 168.09375 205.6875 167.707031 204.210938 167.707031 C 202.738281 167.707031 201.972656 168.15625 201.332031 168.539062 C 200.820312 168.796875 200.5 169.054688 199.667969 169.054688 C 198.835938 169.054688 198.515625 168.859375 198 168.605469 C 197.359375 168.222656 196.59375 167.773438 195.121094 167.773438 C 193.648438 167.773438 192.878906 168.222656 192.238281 168.605469 C 191.726562 168.925781 191.40625 169.117188 190.574219 169.117188 C 189.742188 169.117188 189.421875 168.925781 188.910156 168.667969 C 188.269531 168.285156 187.5 167.902344 186.027344 167.902344 C 184.554688 167.902344 183.722656 168.347656 183.082031 168.734375 C 182.570312 168.988281 182.25 169.246094 181.417969 169.246094 C 180.585938 169.246094 180.265625 169.054688 179.75 168.796875 C 179.113281 168.476562 178.34375 168.027344 176.871094 168.027344 C 175.398438 168.027344 174.566406 168.476562 173.925781 168.859375 C 173.414062 169.179688 173.09375 169.375 172.261719 169.375 C 171.425781 169.375 171.105469 169.179688 170.59375 168.925781 C 169.953125 168.539062 169.1875 168.09375 167.714844 168.09375 C 166.242188 168.09375 165.40625 168.539062 164.769531 168.925781 C 164.253906 169.179688 163.933594 169.4375 163.101562 169.4375 C 162.269531 169.4375 161.949219 169.246094 161.4375 168.988281 C 160.796875 168.605469 160.03125 168.222656 158.554688 168.222656 C 157.082031 168.222656 156.25 168.667969 155.609375 169.054688 C 155.097656 169.308594 154.777344 169.566406 153.945312 169.566406 C 153.113281 169.566406 152.792969 169.375 152.28125 169.117188 C 151.640625 168.734375 150.871094 168.347656 149.398438 168.347656 C 147.925781 168.347656 147.09375 168.796875 146.453125 169.179688 C 145.941406 169.5 145.621094 169.695312 144.789062 169.695312 C 144.277344 169.695312 143.957031 169.628906 143.636719 169.5 L 163.296875 155.605469 C 163.550781 155.671875 163.742188 155.796875 164 155.925781 C 164.640625 156.308594 165.472656 156.695312 167.007812 156.695312 C 168.546875 156.695312 169.378906 156.246094 170.019531 155.925781 C 170.53125 155.671875 170.914062 155.414062 171.8125 155.414062 C 172.707031 155.414062 173.09375 155.605469 173.605469 155.925781 C 174.246094 156.308594 175.078125 156.695312 176.613281 156.695312 C 178.152344 156.695312 178.984375 156.246094 179.625 155.925781 C 180.136719 155.671875 180.519531 155.414062 181.417969 155.414062 C 182.3125 155.414062 182.699219 155.605469 183.210938 155.925781 C 183.851562 156.308594 184.683594 156.695312 186.21875 156.695312 C 187.757812 156.695312 188.589844 156.246094 189.230469 155.925781 C 189.742188 155.671875 190.125 155.414062 191.023438 155.414062 C 191.917969 155.414062 192.300781 155.605469 192.816406 155.925781 C 193.453125 156.308594 194.289062 156.695312 195.824219 156.695312 C 197.359375 156.695312 198.195312 156.246094 198.832031 155.925781 C 199.347656 155.671875 199.730469 155.414062 200.625 155.414062 C 201.523438 155.414062 201.90625 155.605469 202.417969 155.925781 C 203.058594 156.246094 204.53125 156.757812 206.003906 156.757812 Z M 222.207031 167.453125 " fill-opacity="1" fill-rule="nonzero"/><path fill="#f6475f" d="M 165.472656 153.109375 C 165.792969 153.238281 166.175781 153.363281 166.816406 153.363281 C 167.714844 153.363281 168.097656 153.171875 168.609375 152.851562 C 169.25 152.53125 170.082031 152.085938 171.621094 152.085938 C 173.15625 152.085938 173.988281 152.53125 174.628906 152.851562 C 175.140625 153.109375 175.527344 153.363281 176.421875 153.363281 C 177.320312 153.363281 177.703125 153.171875 178.214844 152.851562 C 178.855469 152.53125 179.6875 152.085938 181.226562 152.085938 C 182.761719 152.085938 183.59375 152.53125 184.234375 152.851562 C 184.746094 153.109375 185.128906 153.363281 186.027344 153.363281 C 186.921875 153.363281 187.308594 153.171875 187.820312 152.851562 C 188.460938 152.53125 189.292969 152.085938 190.828125 152.085938 C 192.367188 152.085938 193.199219 152.53125 193.839844 152.851562 C 194.351562 153.109375 194.734375 153.363281 195.632812 153.363281 C 196.527344 153.363281 196.914062 153.171875 197.425781 152.851562 C 198.066406 152.53125 198.898438 152.085938 200.371094 152.085938 L 183.722656 140.238281 Z M 165.472656 153.109375 " fill-opacity="1" fill-rule="nonzero"/><path fill="#f6475f" d="M 216.058594 127.367188 C 214.011719 127.496094 211.960938 127.625 209.910156 127.816406 C 207.03125 130.3125 204.46875 133.195312 202.292969 136.394531 C 200.179688 139.597656 198.449219 143.054688 197.296875 146.769531 L 202.164062 150.226562 C 204.597656 141.390625 209.398438 133.515625 216.058594 127.367188 Z M 216.058594 127.367188 " fill-opacity="1" fill-rule="nonzero"/><path fill="#f6475f" d="M 234.117188 103.996094 C 216.058594 90.292969 191.726562 88.179688 171.425781 98.679688 L 169.507812 99.640625 C 187.5 97.078125 205.878906 98.742188 223.101562 104.507812 L 230.402344 106.941406 C 231.425781 105.660156 232.644531 104.699219 234.117188 103.996094 Z M 234.117188 103.996094 " fill-opacity="1" fill-rule="nonzero"/><path fill="#f6475f" d="M 144.980469 331.507812 C 144.660156 331.316406 144.46875 330.929688 144.40625 330.546875 L 142.292969 306.40625 L 134.351562 330.164062 C 134.222656 330.609375 133.839844 330.929688 133.390625 330.996094 C 132.941406 331.058594 132.429688 330.929688 132.175781 330.546875 L 121.609375 317.421875 L 122.699219 330.675781 C 122.761719 331.125 122.570312 331.507812 122.183594 331.828125 C 121.863281 332.082031 121.351562 332.148438 120.96875 332.019531 L 112.003906 328.753906 L 117.511719 337.140625 L 149.785156 337.140625 L 151.257812 329.90625 L 146.070312 331.636719 C 145.75 331.765625 145.300781 331.699219 144.980469 331.507812 Z M 144.980469 331.507812 " fill-opacity="1" fill-rule="nonzero"/><path fill="#f6475f" d="M 120.96875 267.984375 L 144.019531 267.984375 L 144.019531 285.914062 L 120.96875 285.914062 Z M 120.96875 267.984375 " fill-opacity="1" fill-rule="nonzero"/><g clip-path="url(#3737107c58)"><path fill="#f6475f" d="M 77.042969 126.726562 C 82.804688 127.109375 88.503906 128.199219 94.011719 129.863281 C 99.515625 131.527344 104.894531 133.835938 109.828125 136.714844 L 121.609375 143.503906 C 121.738281 142.925781 121.992188 142.285156 122.25 141.710938 L 110.273438 130.695312 C 105.921875 126.726562 100.925781 123.589844 95.484375 121.347656 C 90.039062 119.105469 84.277344 117.890625 78.386719 117.761719 C 70.507812 117.570312 62.632812 119.234375 55.527344 122.628906 L 37.722656 131.210938 L 58.214844 127.625 C 64.425781 126.597656 70.703125 126.277344 77.042969 126.726562 Z M 77.042969 126.726562 " fill-opacity="1" fill-rule="nonzero"/></g><path fill="#f6475f" d="M 78.515625 115.265625 C 84.726562 115.457031 90.746094 116.738281 96.507812 119.042969 C 102.207031 121.347656 107.457031 124.675781 112.066406 128.839844 L 123.65625 139.46875 C 123.976562 139.085938 124.234375 138.765625 124.617188 138.378906 L 111.683594 120.964844 C 105.984375 113.28125 97.722656 107.964844 88.375 105.980469 C 85.75 105.402344 83.058594 105.148438 80.371094 105.148438 C 71.277344 105.148438 62.441406 108.347656 55.460938 114.113281 L 39.003906 127.816406 L 54.5 120.324219 C 61.929688 116.800781 70.253906 115.007812 78.515625 115.265625 Z M 78.515625 115.265625 " fill-opacity="1" fill-rule="nonzero"/><path fill="#f6475f" d="M 154.714844 247.238281 C 153.882812 246.664062 153.304688 246.214844 151.960938 246.214844 C 150.617188 246.214844 150.039062 246.664062 149.207031 247.238281 C 148.246094 247.941406 147.09375 248.777344 144.917969 248.777344 C 142.738281 248.777344 141.585938 247.941406 140.628906 247.238281 C 139.792969 246.664062 139.21875 246.214844 137.875 246.214844 C 136.527344 246.214844 135.953125 246.664062 135.121094 247.238281 C 134.160156 247.941406 133.007812 248.777344 130.828125 248.777344 C 128.652344 248.777344 127.5 247.941406 126.539062 247.238281 C 125.707031 246.664062 125.128906 246.214844 123.785156 246.214844 C 122.441406 246.214844 121.863281 246.664062 121.03125 247.238281 C 120.070312 247.941406 118.917969 248.777344 116.742188 248.777344 C 114.566406 248.777344 113.414062 247.941406 112.453125 247.238281 C 111.621094 246.664062 111.042969 246.214844 109.699219 246.214844 C 108.355469 246.214844 107.777344 246.664062 106.945312 247.238281 C 106.242188 247.75 105.410156 248.390625 104.0625 248.648438 L 108.289062 337.140625 L 114.691406 337.140625 L 107.96875 326.960938 C 107.648438 326.511719 107.714844 325.871094 108.035156 325.488281 C 108.355469 325.039062 108.929688 324.910156 109.507812 325.105469 L 120.199219 329.011719 L 118.917969 313.578125 C 118.855469 313 119.175781 312.488281 119.753906 312.296875 C 120.265625 312.105469 120.90625 312.234375 121.226562 312.679688 L 132.878906 327.28125 L 142.035156 299.875 C 142.226562 299.296875 142.804688 298.914062 143.378906 298.976562 C 143.957031 299.042969 144.46875 299.554688 144.53125 300.132812 L 147.09375 328.753906 L 152.859375 326.898438 C 153.304688 326.769531 153.753906 326.832031 154.136719 327.152344 C 154.457031 327.472656 154.652344 327.921875 154.523438 328.371094 L 152.664062 337.207031 L 162.140625 337.207031 L 157.917969 248.710938 C 156.316406 248.390625 155.417969 247.75 154.714844 247.238281 Z M 150.425781 285.914062 C 151.128906 285.914062 151.703125 286.492188 151.703125 287.195312 C 151.703125 287.898438 151.128906 288.476562 150.425781 288.476562 L 146.582031 288.476562 L 146.582031 292.320312 C 146.582031 293.023438 146.007812 293.597656 145.300781 293.597656 C 144.597656 293.597656 144.019531 293.023438 144.019531 292.320312 L 144.019531 288.476562 L 120.96875 288.476562 L 120.96875 292.320312 C 120.96875 293.023438 120.390625 293.597656 119.6875 293.597656 C 118.984375 293.597656 118.40625 293.023438 118.40625 292.320312 L 118.40625 288.476562 L 114.566406 288.476562 C 113.859375 288.476562 113.285156 287.898438 113.285156 287.195312 C 113.285156 286.492188 113.859375 285.914062 114.566406 285.914062 L 118.40625 285.914062 L 118.40625 267.984375 L 114.566406 267.984375 C 113.859375 267.984375 113.285156 267.410156 113.285156 266.707031 C 113.285156 266 113.859375 265.425781 114.566406 265.425781 L 118.40625 265.425781 L 118.40625 261.582031 C 118.40625 260.878906 118.984375 260.300781 119.6875 260.300781 C 120.390625 260.300781 120.96875 260.878906 120.96875 261.582031 L 120.96875 265.425781 L 144.019531 265.425781 L 144.019531 261.582031 C 144.019531 260.878906 144.597656 260.300781 145.300781 260.300781 C 146.007812 260.300781 146.582031 260.878906 146.582031 261.582031 L 146.582031 265.425781 L 150.425781 265.425781 C 151.128906 265.425781 151.703125 266 151.703125 266.707031 C 151.703125 267.410156 151.128906 267.984375 150.425781 267.984375 L 146.582031 267.984375 L 146.582031 285.914062 Z M 150.425781 285.914062 " fill-opacity="1" fill-rule="nonzero"/><path fill="#f6475f" d="M 133.839844 134.988281 C 134.09375 134.988281 134.351562 135.050781 134.671875 135.050781 L 132.238281 111.679688 C 131.34375 103.226562 133.519531 94.773438 138.386719 87.792969 C 144.980469 78.316406 155.867188 72.617188 167.457031 72.617188 C 167.777344 72.617188 168.097656 72.617188 168.355469 72.617188 L 175.460938 72.808594 L 168.929688 70.3125 C 156.445312 65.511719 142.164062 69.03125 133.328125 79.085938 C 128.140625 84.976562 125.324219 92.46875 125.324219 100.28125 C 125.324219 103.226562 125.707031 106.109375 126.539062 108.925781 Z M 133.839844 134.988281 " fill-opacity="1" fill-rule="nonzero"/><path fill="#f6475f" d="M 279.070312 112.640625 L 266.710938 113.535156 C 266.773438 114.113281 266.839844 114.625 266.839844 115.199219 L 286.175781 117.632812 C 289.570312 118.082031 292.964844 118.914062 296.230469 120.066406 C 299.496094 121.285156 302.570312 122.882812 305.449219 124.804688 C 311.917969 129.097656 317.167969 135.050781 320.625 142.03125 L 334.523438 169.820312 L 333.242188 158.101562 C 330.359375 130.632812 306.539062 110.652344 279.070312 112.640625 Z M 279.070312 112.640625 " fill-opacity="1" fill-rule="nonzero"/><path fill="#f6475f" d="M 190.125 337.140625 L 233.667969 337.140625 L 233.667969 267.984375 L 190.125 267.984375 Z M 190.125 337.140625 " fill-opacity="1" fill-rule="nonzero"/><g clip-path="url(#ccfc80ff82)"><path fill="#f6475f" d="M 331.191406 124.421875 C 327.222656 117.570312 321.460938 111.808594 314.542969 107.902344 C 302.824219 101.242188 288.929688 100.089844 276.316406 104.828125 L 265.046875 109.054688 C 265.429688 109.695312 265.8125 110.332031 266.070312 111.039062 L 278.941406 110.140625 C 292.835938 109.179688 306.347656 113.535156 317.039062 122.4375 C 327.734375 131.335938 334.394531 143.886719 335.867188 157.71875 L 337.277344 170.398438 L 337.277344 147.089844 C 337.277344 139.148438 335.164062 131.273438 331.191406 124.421875 Z M 331.191406 124.421875 " fill-opacity="1" fill-rule="nonzero"/></g><path fill="#f6475f" d="M 274.84375 245.191406 C 275.804688 244.484375 276.957031 243.652344 279.132812 243.652344 C 281.308594 243.652344 282.460938 244.484375 283.421875 245.191406 C 283.871094 245.511719 284.253906 245.828125 284.769531 245.957031 C 284.703125 245.765625 284.640625 245.574219 284.574219 245.445312 C 283.039062 241.027344 280.988281 236.800781 278.554688 232.765625 C 277.082031 232.703125 276.25 232.320312 275.609375 232 C 274.96875 231.679688 274.523438 231.488281 273.433594 231.488281 C 272.34375 231.488281 271.898438 231.742188 271.257812 232 C 270.550781 232.320312 269.65625 232.765625 267.992188 232.765625 C 266.324219 232.765625 265.429688 232.320312 264.726562 232 C 264.085938 231.679688 263.636719 231.488281 262.546875 231.488281 C 261.460938 231.488281 261.011719 231.742188 260.371094 232 C 259.667969 232.320312 258.769531 232.765625 257.105469 232.765625 C 255.441406 232.765625 254.542969 232.320312 253.839844 232 C 253.199219 231.679688 252.75 231.488281 251.664062 231.488281 C 250.574219 231.488281 250.125 231.742188 249.484375 232 C 248.78125 232.320312 247.882812 232.765625 246.21875 232.765625 C 244.554688 232.765625 243.65625 232.320312 242.953125 232 C 242.3125 231.679688 241.863281 231.488281 240.777344 231.488281 C 239.6875 231.488281 239.238281 231.742188 238.597656 232 C 237.894531 232.320312 237 232.765625 235.332031 232.765625 C 233.667969 232.765625 232.773438 232.320312 232.066406 232 C 231.425781 231.679688 230.980469 231.488281 229.890625 231.488281 C 228.800781 231.488281 228.355469 231.742188 227.714844 232 C 227.007812 232.320312 226.113281 232.765625 224.449219 232.765625 C 222.78125 232.765625 221.886719 232.320312 221.183594 232 C 220.542969 231.679688 220.09375 231.488281 219.003906 231.488281 C 217.917969 231.488281 217.46875 231.742188 216.828125 232 C 216.125 232.320312 215.226562 232.765625 213.5625 232.765625 C 211.898438 232.765625 211 232.320312 210.296875 232 C 209.65625 231.679688 209.207031 231.488281 208.117188 231.488281 C 207.03125 231.488281 206.582031 231.742188 205.941406 232 C 205.238281 232.320312 204.339844 232.765625 202.675781 232.765625 C 201.011719 232.765625 200.113281 232.320312 199.410156 232 C 198.769531 231.679688 198.320312 231.488281 197.234375 231.488281 C 196.144531 231.488281 195.695312 231.742188 195.054688 232 C 194.351562 232.320312 193.457031 232.765625 191.789062 232.765625 C 190.125 232.765625 189.230469 232.320312 188.523438 232 C 187.882812 231.679688 187.4375 231.488281 186.347656 231.488281 C 185.257812 231.488281 184.8125 231.742188 184.171875 232 C 183.464844 232.320312 182.570312 232.765625 180.90625 232.765625 C 179.238281 232.765625 178.34375 232.320312 177.640625 232 C 177 231.679688 176.550781 231.488281 175.460938 231.488281 C 174.371094 231.488281 173.925781 231.742188 173.285156 232 C 172.582031 232.320312 171.683594 232.765625 170.019531 232.765625 C 168.355469 232.765625 167.457031 232.320312 166.753906 232 C 166.113281 231.679688 165.664062 231.488281 164.574219 231.488281 C 163.488281 231.488281 163.039062 231.742188 162.398438 232 C 161.695312 232.320312 160.796875 232.765625 159.132812 232.765625 C 157.46875 232.765625 156.570312 232.320312 155.867188 232 C 155.226562 231.679688 154.777344 231.488281 153.691406 231.488281 C 152.601562 231.488281 152.152344 231.742188 151.511719 232 C 150.808594 232.320312 149.910156 232.765625 148.246094 232.765625 C 146.582031 232.765625 145.6875 232.320312 144.980469 232 C 144.339844 231.679688 143.894531 231.488281 142.804688 231.488281 C 141.714844 231.488281 141.265625 231.742188 140.628906 232 C 139.921875 232.320312 139.027344 232.765625 137.363281 232.765625 C 135.695312 232.765625 134.800781 232.320312 134.09375 232 C 133.457031 231.679688 133.007812 231.488281 131.917969 231.488281 C 130.828125 231.488281 130.382812 231.742188 129.742188 232 C 129.035156 232.320312 128.140625 232.765625 126.476562 232.765625 C 124.8125 232.765625 123.914062 232.320312 123.210938 232 C 122.570312 231.679688 122.121094 231.488281 121.03125 231.488281 C 119.945312 231.488281 119.496094 231.742188 118.855469 232 C 118.152344 232.320312 117.253906 232.765625 115.589844 232.765625 C 113.925781 232.765625 113.027344 232.320312 112.324219 232 C 111.683594 231.679688 111.234375 231.488281 110.148438 231.488281 C 109.058594 231.488281 108.609375 231.742188 107.96875 232 C 107.265625 232.320312 106.367188 232.765625 104.703125 232.765625 C 103.039062 232.765625 102.144531 232.320312 101.4375 232 C 100.796875 231.679688 100.351562 231.488281 99.261719 231.488281 C 98.171875 231.488281 97.722656 231.742188 97.082031 232 C 96.378906 232.320312 95.484375 232.765625 93.816406 232.765625 C 92.152344 232.765625 91.257812 232.320312 90.550781 232 C 90.167969 231.804688 89.847656 231.679688 89.464844 231.613281 C 86.964844 235.519531 84.851562 239.683594 83.1875 244.035156 C 84.085938 244.355469 84.726562 244.804688 85.300781 245.253906 C 86.132812 245.828125 86.710938 246.277344 88.054688 246.277344 C 89.398438 246.277344 90.039062 245.828125 90.871094 245.253906 C 91.832031 244.550781 92.984375 243.71875 95.164062 243.71875 C 97.339844 243.71875 98.492188 244.550781 99.453125 245.253906 C 100.285156 245.828125 100.863281 246.277344 102.207031 246.277344 C 103.550781 246.277344 104.191406 245.828125 105.023438 245.253906 C 105.984375 244.550781 107.136719 243.71875 109.3125 243.71875 C 111.492188 243.71875 112.644531 244.550781 113.605469 245.253906 C 114.4375 245.828125 115.011719 246.277344 116.359375 246.277344 C 117.703125 246.277344 118.277344 245.828125 119.113281 245.253906 C 120.070312 244.550781 121.226562 243.71875 123.402344 243.71875 C 125.578125 243.71875 126.730469 244.550781 127.691406 245.253906 C 128.523438 245.828125 129.101562 246.277344 130.445312 246.277344 C 131.789062 246.277344 132.367188 245.828125 133.199219 245.253906 C 134.160156 244.550781 135.3125 243.71875 137.488281 243.71875 C 139.667969 243.71875 140.820312 244.550781 141.78125 245.253906 C 142.613281 245.828125 143.1875 246.277344 144.53125 246.277344 C 145.878906 246.277344 146.453125 245.828125 147.285156 245.253906 C 148.246094 244.550781 149.398438 243.71875 151.578125 243.71875 C 153.753906 243.71875 154.90625 244.550781 155.867188 245.253906 C 156.699219 245.828125 157.277344 246.277344 158.621094 246.277344 C 159.964844 246.277344 160.542969 245.828125 161.375 245.253906 C 162.335938 244.550781 163.488281 243.71875 165.664062 243.71875 C 167.839844 243.71875 168.996094 244.550781 169.953125 245.253906 C 170.789062 245.828125 171.363281 246.277344 172.707031 246.277344 C 174.054688 246.277344 174.628906 245.828125 175.460938 245.253906 C 176.421875 244.550781 177.574219 243.71875 179.75 243.71875 C 181.929688 243.71875 183.082031 244.550781 184.042969 245.253906 C 184.875 245.828125 185.449219 246.277344 186.796875 246.277344 C 188.140625 246.277344 188.714844 245.828125 189.550781 245.253906 C 190.507812 244.550781 191.664062 243.71875 193.839844 243.71875 C 196.015625 243.71875 197.167969 244.550781 198.128906 245.253906 C 198.960938 245.828125 199.539062 246.277344 200.882812 246.277344 C 202.226562 246.277344 202.804688 245.828125 203.636719 245.253906 C 204.597656 244.550781 205.75 243.71875 207.925781 243.71875 C 210.105469 243.71875 211.257812 244.550781 212.21875 245.253906 C 213.050781 245.828125 213.625 246.277344 214.96875 246.277344 C 216.316406 246.277344 216.890625 245.828125 217.722656 245.253906 C 218.683594 244.550781 219.835938 243.71875 222.015625 243.71875 C 224.191406 243.71875 225.34375 244.550781 226.304688 245.253906 C 227.136719 245.828125 227.714844 246.277344 229.058594 246.277344 C 230.402344 246.277344 230.980469 245.828125 231.8125 245.253906 C 232.773438 244.550781 233.925781 243.71875 236.101562 243.71875 C 238.277344 243.71875 239.433594 244.550781 240.390625 245.253906 C 241.222656 245.828125 241.800781 246.277344 243.144531 246.277344 C 244.492188 246.277344 245.066406 245.828125 245.898438 245.253906 C 246.859375 244.550781 248.011719 243.71875 250.1875 243.71875 C 252.367188 243.71875 253.519531 244.550781 254.480469 245.253906 C 255.3125 245.828125 255.886719 246.277344 257.234375 246.277344 C 258.578125 246.277344 259.152344 245.828125 259.988281 245.253906 C 260.945312 244.550781 262.101562 243.71875 264.277344 243.71875 C 266.453125 243.71875 267.605469 244.550781 268.566406 245.253906 C 269.398438 245.828125 269.976562 246.277344 271.320312 246.277344 C 273.371094 246.214844 274.011719 245.765625 274.84375 245.191406 Z M 274.84375 245.191406 " fill-opacity="1" fill-rule="nonzero"/><path fill="#f6475f" d="M 257.9375 248.777344 C 255.761719 248.777344 254.609375 247.941406 253.648438 247.238281 C 252.816406 246.664062 252.238281 246.214844 250.894531 246.214844 C 249.550781 246.214844 248.972656 246.664062 248.140625 247.238281 C 247.179688 247.941406 246.027344 248.777344 243.851562 248.777344 C 241.671875 248.777344 240.519531 247.941406 239.558594 247.238281 C 238.726562 246.664062 238.152344 246.214844 236.804688 246.214844 C 235.460938 246.214844 234.886719 246.664062 234.054688 247.238281 C 233.09375 247.941406 231.941406 248.777344 229.761719 248.777344 C 227.585938 248.777344 226.433594 247.941406 225.472656 247.238281 C 224.640625 246.664062 224.0625 246.214844 222.71875 246.214844 C 221.375 246.214844 220.796875 246.664062 219.964844 247.238281 C 219.003906 247.941406 217.851562 248.777344 215.675781 248.777344 C 213.496094 248.777344 212.34375 247.941406 211.382812 247.238281 C 210.550781 246.664062 209.976562 246.214844 208.632812 246.214844 C 207.285156 246.214844 206.710938 246.664062 205.878906 247.238281 C 204.917969 247.941406 203.765625 248.777344 201.585938 248.777344 C 199.410156 248.777344 198.257812 247.941406 197.296875 247.238281 C 196.464844 246.664062 195.886719 246.214844 194.542969 246.214844 C 193.199219 246.214844 192.621094 246.664062 191.789062 247.238281 C 190.828125 247.941406 189.675781 248.777344 187.5 248.777344 C 185.324219 248.777344 184.171875 247.941406 183.210938 247.238281 C 182.378906 246.664062 181.800781 246.214844 180.457031 246.214844 C 179.113281 246.214844 178.535156 246.664062 177.703125 247.238281 C 176.742188 247.941406 175.589844 248.777344 173.414062 248.777344 C 171.234375 248.777344 170.082031 247.941406 169.121094 247.238281 C 168.289062 246.664062 167.714844 246.214844 166.367188 246.214844 C 165.023438 246.214844 164.449219 246.664062 163.617188 247.238281 C 162.847656 247.75 161.949219 248.390625 160.542969 248.648438 L 164.769531 337.140625 L 187.5625 337.140625 L 187.5625 267.984375 L 183.722656 267.984375 C 183.019531 267.984375 182.441406 267.410156 182.441406 266.707031 C 182.441406 266 183.019531 265.425781 183.722656 265.425781 L 187.5625 265.425781 L 187.5625 261.582031 C 187.5625 260.878906 188.140625 260.300781 188.84375 260.300781 C 189.550781 260.300781 190.125 260.878906 190.125 261.582031 L 190.125 265.425781 L 233.667969 265.425781 L 233.667969 261.582031 C 233.667969 260.878906 234.246094 260.300781 234.949219 260.300781 C 235.652344 260.300781 236.230469 260.878906 236.230469 261.582031 L 236.230469 265.425781 L 240.070312 265.425781 C 240.777344 265.425781 241.351562 266 241.351562 266.707031 C 241.351562 267.410156 240.777344 267.984375 240.070312 267.984375 L 236.230469 267.984375 L 236.230469 337.140625 L 259.347656 337.140625 L 263.636719 246.40625 C 263.125 246.597656 262.675781 246.917969 262.164062 247.238281 C 261.265625 247.941406 260.113281 248.777344 257.9375 248.777344 Z M 257.9375 248.777344 " fill-opacity="1" fill-rule="nonzero"/><path fill="#f6475f" d="M 167.394531 75.179688 C 156.636719 75.179688 146.582031 80.429688 140.433594 89.265625 C 135.953125 95.734375 133.902344 103.609375 134.734375 111.421875 L 137.296875 135.882812 C 137.679688 136.074219 138.128906 136.269531 138.515625 136.460938 L 140.628906 116.097656 C 141.265625 110.207031 142.933594 104.507812 145.621094 99.257812 C 149.015625 92.597656 153.945312 86.707031 159.964844 82.222656 C 163.933594 79.277344 168.417969 76.972656 173.09375 75.308594 L 168.289062 75.179688 C 167.96875 75.179688 167.714844 75.179688 167.394531 75.179688 Z M 167.394531 75.179688 " fill-opacity="1" fill-rule="nonzero"/><path fill="#f6475f" d="M 246.730469 123.011719 C 245.707031 123.910156 244.492188 124.675781 243.144531 125.125 L 242.3125 128.007812 L 249.101562 128.261719 C 249.292969 127.304688 249.421875 126.277344 249.613281 125.316406 C 248.523438 124.675781 247.5625 123.910156 246.730469 123.011719 Z M 246.730469 123.011719 " fill-opacity="1" fill-rule="nonzero"/><path fill="#f6475f" d="M 232.132812 48.09375 C 241.289062 54.175781 246.859375 63.910156 247.371094 74.859375 L 248.078125 89.203125 C 248.394531 89.203125 248.652344 89.203125 248.972656 89.203125 L 250.828125 70.375 C 250.957031 69.417969 250.957031 68.390625 250.957031 67.367188 C 250.957031 58.210938 246.859375 49.695312 239.6875 43.996094 C 229.953125 36.183594 216.25 35.285156 205.558594 41.6875 L 200.371094 44.761719 L 201.394531 44.378906 C 211.898438 40.730469 223.039062 42.007812 232.132812 48.09375 Z M 232.132812 48.09375 " fill-opacity="1" fill-rule="nonzero"/><path fill="#f6475f" d="M 173.414062 93.621094 L 171.105469 95.925781 C 192.621094 85.234375 218.300781 87.921875 237 102.96875 C 237.0625 102.96875 237.0625 102.96875 237.125 102.96875 C 237.125 102.84375 237.0625 102.777344 237.0625 102.648438 L 232.453125 96.886719 C 229.441406 93.109375 225.726562 89.90625 221.566406 87.472656 C 217.402344 85.039062 212.792969 83.375 207.992188 82.542969 C 195.375 80.429688 182.441406 84.59375 173.414062 93.621094 Z M 173.414062 93.621094 " fill-opacity="1" fill-rule="nonzero"/><path fill="#f6475f" d="M 243.722656 106.554688 C 242.3125 105.722656 240.777344 105.339844 239.238281 105.339844 C 238.472656 105.339844 237.703125 105.46875 236.933594 105.660156 C 234.628906 106.300781 232.707031 107.773438 231.492188 109.820312 C 230.273438 111.871094 229.953125 114.304688 230.59375 116.609375 C 231.234375 118.914062 232.707031 120.835938 234.757812 122.050781 C 236.742188 123.203125 238.984375 123.523438 241.160156 123.078125 C 241.160156 123.078125 241.542969 123.011719 241.542969 123.011719 C 246.347656 121.730469 249.164062 116.800781 247.949219 112.0625 C 247.242188 109.695312 245.769531 107.773438 243.722656 106.554688 Z M 243.722656 106.554688 " fill-opacity="1" fill-rule="nonzero"/><path fill="#f6475f" d="M 245.515625 89.585938 C 245.578125 89.585938 245.578125 89.585938 245.644531 89.585938 L 244.875 75.050781 C 244.363281 64.933594 239.238281 55.90625 230.722656 50.269531 C 222.269531 44.699219 211.960938 43.480469 202.484375 46.875 C 207.160156 47.582031 211.640625 49.054688 215.867188 51.101562 C 222.140625 54.238281 227.714844 58.851562 231.875 64.484375 C 235.207031 68.902344 237.703125 73.898438 239.238281 79.277344 L 242.570312 90.804688 C 243.464844 90.292969 244.425781 89.84375 245.515625 89.585938 Z M 245.515625 89.585938 " fill-opacity="1" fill-rule="nonzero"/><path fill="#f6475f" d="M 94.074219 230.207031 C 95.164062 230.207031 95.609375 229.949219 96.25 229.695312 C 96.957031 229.375 97.851562 228.925781 99.515625 228.925781 C 101.183594 228.925781 102.078125 229.375 102.78125 229.695312 C 103.421875 230.011719 103.871094 230.207031 104.960938 230.207031 C 106.046875 230.207031 106.496094 229.949219 107.136719 229.695312 C 107.839844 229.375 108.738281 228.925781 110.402344 228.925781 C 112.066406 228.925781 112.964844 229.375 113.667969 229.695312 C 114.308594 230.011719 114.757812 230.207031 115.847656 230.207031 C 116.933594 230.207031 117.382812 229.949219 118.023438 229.695312 C 118.726562 229.375 119.625 228.925781 121.289062 228.925781 C 122.953125 228.925781 123.851562 229.375 124.554688 229.695312 C 125.195312 230.011719 125.644531 230.207031 126.730469 230.207031 C 127.820312 230.207031 128.269531 229.949219 128.910156 229.695312 C 129.613281 229.375 130.507812 228.925781 132.175781 228.925781 C 133.839844 228.925781 134.734375 229.375 135.441406 229.695312 C 136.082031 230.011719 136.527344 230.207031 137.617188 230.207031 C 138.707031 230.207031 139.152344 229.949219 139.792969 229.695312 C 140.5 229.375 141.394531 228.925781 143.058594 228.925781 C 144.726562 228.925781 145.621094 229.375 146.324219 229.695312 C 146.964844 230.011719 147.414062 230.207031 148.503906 230.207031 C 149.59375 230.207031 150.039062 229.949219 150.679688 229.695312 C 151.386719 229.375 152.28125 228.925781 153.945312 228.925781 C 155.609375 228.925781 156.507812 229.375 157.210938 229.695312 C 157.851562 230.011719 158.300781 230.207031 159.390625 230.207031 C 160.476562 230.207031 160.925781 229.949219 161.566406 229.695312 C 162.269531 229.375 163.167969 228.925781 164.832031 228.925781 C 166.496094 228.925781 167.394531 229.375 168.097656 229.695312 C 168.738281 230.011719 169.1875 230.207031 170.273438 230.207031 C 171.363281 230.207031 171.8125 229.949219 172.453125 229.695312 C 173.15625 229.375 174.054688 228.925781 175.71875 228.925781 C 177.382812 228.925781 178.277344 229.375 178.984375 229.695312 C 179.625 230.011719 180.070312 230.207031 181.160156 230.207031 C 182.25 230.207031 182.699219 229.949219 183.335938 229.695312 C 184.042969 229.375 184.9375 228.925781 186.605469 228.925781 C 188.269531 228.925781 189.164062 229.375 189.871094 229.695312 C 190.507812 230.011719 190.957031 230.207031 192.046875 230.207031 C 193.136719 230.207031 193.582031 229.949219 194.222656 229.695312 C 194.929688 229.375 195.824219 228.925781 197.488281 228.925781 C 199.152344 228.925781 200.050781 229.375 200.753906 229.695312 C 201.394531 230.011719 201.84375 230.207031 202.933594 230.207031 C 204.019531 230.207031 204.46875 229.949219 205.109375 229.695312 C 205.8125 229.375 206.710938 228.925781 208.375 228.925781 C 210.039062 228.925781 210.9375 229.375 211.640625 229.695312 C 212.28125 230.011719 212.730469 230.207031 213.816406 230.207031 C 214.90625 230.207031 215.355469 229.949219 215.996094 229.695312 C 216.699219 229.375 217.597656 228.925781 219.261719 228.925781 C 220.925781 228.925781 221.820312 229.375 222.527344 229.695312 C 223.167969 230.011719 223.613281 230.207031 224.703125 230.207031 C 225.792969 230.207031 226.242188 229.949219 226.882812 229.695312 C 227.585938 229.375 228.480469 228.925781 230.148438 228.925781 C 231.8125 228.925781 232.707031 229.375 233.414062 229.695312 C 234.054688 230.011719 234.5 230.207031 235.589844 230.207031 C 236.679688 230.207031 237.125 229.949219 237.765625 229.695312 C 238.472656 229.375 239.367188 228.925781 241.03125 228.925781 C 242.699219 228.925781 243.59375 229.375 244.296875 229.695312 C 244.9375 230.011719 245.386719 230.207031 246.476562 230.207031 C 247.5625 230.207031 248.011719 229.949219 248.652344 229.695312 C 249.355469 229.375 250.253906 228.925781 251.917969 228.925781 C 253.582031 228.925781 254.480469 229.375 255.183594 229.695312 C 255.824219 230.011719 256.273438 230.207031 257.359375 230.207031 C 258.449219 230.207031 258.898438 229.949219 259.539062 229.695312 C 260.242188 229.375 261.140625 228.925781 262.804688 228.925781 C 264.46875 228.925781 265.367188 229.375 266.070312 229.695312 C 266.710938 230.011719 267.160156 230.207031 268.246094 230.207031 C 269.335938 230.207031 269.785156 229.949219 270.425781 229.695312 C 271.128906 229.375 272.023438 228.925781 273.691406 228.925781 C 275.164062 228.925781 276.058594 229.246094 276.761719 229.566406 C 274.457031 226.234375 271.832031 223.097656 269.015625 220.28125 C 267.605469 218.871094 266.199219 217.527344 264.789062 216.183594 C 264.148438 216.246094 263.699219 216.4375 263.253906 216.628906 C 262.417969 216.949219 261.460938 217.335938 259.601562 217.335938 C 257.746094 217.335938 256.785156 216.949219 255.953125 216.628906 C 255.183594 216.308594 254.609375 216.054688 253.261719 216.054688 C 251.917969 216.054688 251.34375 216.308594 250.574219 216.628906 C 249.742188 216.949219 248.78125 217.335938 246.921875 217.335938 C 245.066406 217.335938 244.105469 216.949219 243.273438 216.628906 C 242.503906 216.308594 241.929688 216.054688 240.585938 216.054688 C 239.238281 216.054688 238.664062 216.308594 237.894531 216.628906 C 237.0625 216.949219 236.101562 217.335938 234.246094 217.335938 C 232.386719 217.335938 231.425781 216.949219 230.59375 216.628906 C 229.828125 216.308594 229.25 216.054688 227.90625 216.054688 C 226.5625 216.054688 225.984375 216.308594 225.214844 216.628906 C 224.382812 216.949219 223.421875 217.335938 221.566406 217.335938 C 219.710938 217.335938 218.75 216.949219 217.917969 216.628906 C 217.148438 216.308594 216.570312 216.054688 215.226562 216.054688 C 213.882812 216.054688 213.304688 216.308594 212.539062 216.628906 C 211.703125 216.949219 210.746094 217.335938 208.886719 217.335938 C 207.03125 217.335938 206.070312 216.949219 205.238281 216.628906 C 204.46875 216.308594 203.890625 216.054688 202.546875 216.054688 C 201.203125 216.054688 200.625 216.308594 199.859375 216.628906 C 199.027344 216.949219 198.066406 217.335938 196.207031 217.335938 C 194.351562 217.335938 193.390625 216.949219 192.558594 216.628906 C 191.789062 216.308594 191.214844 216.054688 189.867188 216.054688 C 188.523438 216.054688 187.949219 216.308594 187.179688 216.628906 C 186.347656 216.949219 185.386719 217.335938 183.53125 217.335938 C 181.671875 217.335938 180.710938 216.949219 179.878906 216.628906 C 179.113281 216.308594 178.535156 216.054688 177.191406 216.054688 C 175.84375 216.054688 175.269531 216.308594 174.5 216.628906 C 173.667969 216.949219 172.707031 217.335938 170.851562 217.335938 C 168.992188 217.335938 168.097656 216.949219 167.199219 216.628906 C 166.433594 216.308594 165.855469 216.054688 164.511719 216.054688 C 163.167969 216.054688 162.589844 216.308594 161.820312 216.628906 C 160.988281 216.949219 160.027344 217.335938 158.171875 217.335938 C 156.316406 217.335938 155.417969 216.949219 154.523438 216.628906 C 153.753906 216.308594 153.175781 216.054688 151.832031 216.054688 C 150.488281 216.054688 149.910156 216.308594 149.144531 216.628906 C 148.3125 216.949219 147.351562 217.335938 145.492188 217.335938 C 143.636719 217.335938 142.738281 216.949219 141.84375 216.628906 C 141.074219 216.308594 140.5 216.054688 139.152344 216.054688 C 137.808594 216.054688 137.234375 216.308594 136.464844 216.628906 C 135.632812 216.949219 134.671875 217.335938 132.816406 217.335938 C 131.023438 217.335938 130.0625 216.949219 129.164062 216.628906 C 128.394531 216.308594 127.820312 216.054688 126.476562 216.054688 C 125.128906 216.054688 124.554688 216.308594 123.785156 216.628906 C 122.953125 216.949219 121.992188 217.335938 120.136719 217.335938 C 118.277344 217.335938 117.382812 216.949219 116.484375 216.628906 C 115.71875 216.308594 115.140625 216.054688 113.796875 216.054688 C 112.453125 216.054688 111.875 216.308594 111.105469 216.628906 C 110.273438 216.949219 109.3125 217.335938 107.457031 217.335938 C 105.601562 217.335938 104.703125 216.949219 103.808594 216.628906 C 103.359375 216.4375 102.910156 216.246094 102.335938 216.183594 C 100.925781 217.527344 99.515625 218.871094 98.109375 220.28125 C 95.289062 223.097656 92.792969 226.109375 90.550781 229.375 C 90.808594 229.5 91.066406 229.566406 91.257812 229.695312 C 92.472656 229.949219 92.984375 230.207031 94.074219 230.207031 Z M 94.074219 230.207031 " fill-opacity="1" fill-rule="nonzero"/><path fill="#f6475f" d="M 131.535156 137.546875 C 129.164062 137.867188 127.050781 139.148438 125.644531 141.007812 C 122.699219 144.914062 123.464844 150.417969 127.242188 153.429688 C 129.804688 151.636719 132.941406 150.929688 135.953125 151.445312 C 136.273438 149.714844 136.976562 148.050781 138.066406 146.640625 C 138.960938 145.425781 140.050781 144.464844 141.332031 143.695312 C 140.753906 141.902344 139.667969 140.367188 138.195312 139.214844 C 136.273438 137.867188 133.902344 137.226562 131.535156 137.546875 Z M 131.535156 137.546875 " fill-opacity="1" fill-rule="nonzero"/><path fill="#f6475f" d="M 253.070312 106.683594 C 251.664062 107.066406 250.382812 107.773438 249.292969 108.796875 C 249.742188 109.628906 250.125 110.460938 250.316406 111.421875 C 251.214844 114.878906 250.445312 118.464844 248.460938 121.15625 C 250.703125 123.78125 254.222656 124.933594 257.617188 124.039062 C 262.417969 122.757812 265.238281 117.824219 263.957031 113.085938 C 262.738281 108.285156 257.875 105.402344 253.070312 106.683594 Z M 253.070312 106.683594 " fill-opacity="1" fill-rule="nonzero"/><path fill="#f6475f" d="M 246.15625 92.019531 C 243.851562 92.660156 241.929688 94.132812 240.710938 96.183594 C 239.75 97.847656 239.367188 99.703125 239.558594 101.5625 L 240.585938 102.84375 C 242.121094 103.035156 243.65625 103.546875 245.066406 104.316406 C 246.15625 104.953125 247.050781 105.722656 247.882812 106.621094 C 249.230469 105.46875 250.765625 104.636719 252.496094 104.1875 C 253.96875 103.800781 255.441406 103.738281 256.847656 103.929688 C 257.488281 102.203125 257.617188 100.28125 257.167969 98.421875 C 255.824219 93.621094 250.894531 90.804688 246.15625 92.019531 Z M 246.15625 92.019531 " fill-opacity="1" fill-rule="nonzero"/><path fill="#f6475f" d="M 292.773438 179.363281 C 294.246094 175.199219 294.949219 170.910156 294.949219 166.492188 C 294.949219 153.042969 288.160156 140.75 276.699219 133.578125 L 262.226562 124.550781 C 262.164062 124.613281 262.101562 124.613281 262.035156 124.675781 L 264.726562 127.109375 C 283.808594 144.65625 289.890625 172.511719 279.902344 196.394531 L 277.660156 201.710938 L 286.496094 190.695312 C 289.1875 187.367188 291.300781 183.523438 292.773438 179.363281 Z M 292.773438 179.363281 " fill-opacity="1" fill-rule="nonzero"/><path fill="#f6475f" d="M 262.933594 129.03125 L 259.667969 126.023438 C 259.21875 126.214844 258.769531 126.34375 258.320312 126.46875 C 257.554688 126.664062 256.722656 126.789062 255.886719 126.855469 C 267.285156 151.25 273.304688 178.273438 273.304688 205.167969 L 273.304688 205.425781 L 277.46875 195.5 C 287.074219 172.574219 281.246094 145.871094 262.933594 129.03125 Z M 262.933594 129.03125 " fill-opacity="1" fill-rule="nonzero"/></svg>